<svg width="561" height="228" viewBox="0 0 561 228" fill="none" xmlns="http://www.w3.org/2000/svg">
<path d="M544.038 184.165C542.965 181.032 541.011 179.864 537.515 179.003C530.21 177.205 522.742 177.049 515.448 175.552C509.21 174.275 503.012 172.708 496.721 171.789C491.764 171.061 486.679 171.235 481.67 170.784C479.374 170.576 477.142 169.761 474.852 169.368C472.08 168.899 469.234 168.807 466.509 168.159C462.728 167.264 458.96 166.194 455.354 164.767C454.397 164.385 453.962 162.478 453.463 161.2C452.315 158.287 451.608 155.148 450.077 152.461C449.051 150.657 447.15 149.039 445.259 148.102C442.5 146.738 439.346 146.166 436.458 145.021C435.496 144.64 434.377 143.663 434.093 142.727C432.609 137.842 429.855 133.75 426.167 130.386C423.425 127.883 420.103 126.467 416.085 126.912C409.04 127.692 402.17 129.109 395.624 131.831C392.284 133.224 389.211 135.409 385.773 136.369C382.115 137.386 378.138 137.831 374.357 137.611C372.722 137.513 371.198 135.143 369.661 133.756C364.507 129.103 359.393 124.837 352.169 123.08C345.988 121.577 340.063 121.531 333.946 122.167C333.772 122.184 333.593 122.207 333.419 122.207C326.502 122.38 319.573 121.901 312.738 123.733C310.256 124.398 307.444 123.75 304.824 124.051C301.733 124.404 300.179 122.71 298.84 120.398C297.182 117.531 295.53 114.658 293.761 111.861C291.5 108.283 287.9 107.202 284.125 108.127C279.272 109.312 274.628 111.311 269.845 112.791C268.303 113.265 266.587 113.202 265.479 113.323C262.899 109.439 260.806 105.734 258.157 102.479C256.174 100.052 253.466 98.2078 251.089 96.098C247.523 92.9305 244.097 89.5838 240.351 86.6475C237.331 84.2776 233.968 82.3123 230.675 80.3066C224.952 76.8212 218.621 76.3414 212.104 76.6767C208.231 76.879 204.289 77.0466 200.868 74.7056C200.143 74.2085 199.256 73.4398 199.128 72.6826C198.496 68.9659 198.294 65.1741 197.54 61.4864C197.093 59.3188 196.125 57.1743 195 55.2553C192.42 50.8508 189.916 46.3307 186.738 42.3771C185.109 40.3483 183.787 38.4639 182.993 36.0073C181.793 32.2849 179.132 29.6781 175.734 27.7879C172.041 25.736 168.736 22.9731 164.283 22.3719C159.975 21.7881 155.731 20.7535 151.441 20.002C146.565 19.1466 142.564 17.4068 140.866 12.1295C139.619 8.24518 135.793 6.9562 132.505 5.29729C130.667 4.36668 128.783 3.44185 126.817 2.88695C124.307 2.17599 121.698 1.7656 119.112 1.35521C115.987 0.858113 112.833 0.522863 109.696 0.0777901C106.055 -0.442426 103.191 1.77138 100.147 3.00834C96.7729 4.37824 93.9146 6.9562 90.604 8.53418C84.7655 11.3202 80.939 15.9559 77.4892 21.1581C75.5064 24.1464 72.9263 26.499 68.862 26.0597C68.1605 25.9845 67.4415 25.973 66.74 26.0597C63.6787 26.4412 61.4813 25.5857 59.7014 22.7476C56.5183 17.6784 52.9121 12.8751 49.4102 8.01397C47.9491 5.99091 46.2503 4.74239 43.3282 4.81753C38.7131 4.93314 34.011 4.64991 29.4597 3.88114C25.3954 3.1933 21.5282 1.38411 17.4755 0.574885C16.2985 0.337898 14.1591 1.50549 13.5272 2.62685C11.8284 5.6441 8.66274 6.8984 6.48854 9.26827C6.25083 9.52837 5.93197 9.71334 5.71165 9.98501C2.91128 13.4589 1.22988 13.9213 -2.71847 11.511C-7.77421 8.42436 -13.0618 7.91571 -18.5988 9.50525C-23.6024 10.9387 -28.1943 13.0716 -32.4093 16.3721C-39.4305 21.869 -45.5531 28.1694 -51.2988 34.9033C-54.4471 38.5911 -57.8156 42.0997 -60.7957 45.9088C-62.9699 48.6891 -64.3788 52.082 -66.6515 54.7582C-70.8376 59.6945 -75.3947 64.3244 -79.8417 69.041C-81.297 70.5843 -85.2685 69.9659 -86.5383 68.2029C-87.3442 67.0873 -88.2776 66.018 -89.3212 65.1221C-91.3388 63.3996 -93.2696 63.7348 -94.951 65.8966C-98.6094 70.6075 -101.265 75.7518 -101.769 81.769C-121.54 89.0578 -129.39 104.849 -132.44 123.924C-140.673 125.167 -147.827 129.062 -154.704 132.958C-162.948 137.623 -170.468 143.628 -176.626 150.987C-181.02 156.235 -183.473 162.426 -183.879 169.281C-184.29 176.246 -183.71 182.974 -181.281 189.76C-180.098 193.066 -178.678 195.396 -176.469 198.031C-173.164 201.968 -169.801 203.713 -164.775 202.875C-162.74 202.534 -160.571 202.91 -158.467 203.037C-153.19 203.361 -148.077 202.661 -143.12 200.783C-142.337 200.488 -141.403 200.592 -140.54 200.488C-135.942 199.956 -131.338 199.453 -126.746 198.835C-126.178 198.76 -125.419 198.153 -125.227 197.615C-124.636 195.974 -123.894 194.806 -121.87 195.188C-120.386 195.471 -118.873 195.904 -117.389 195.852C-112.872 195.685 -111.115 199.575 -108.106 201.661C-106.129 203.037 -103.462 203.471 -101.056 204.176C-97.7571 205.141 -94.4117 205.968 -91.0896 206.852C-89.1357 207.372 -87.205 208.112 -85.2163 208.361C-75.0585 209.632 -64.8542 210.713 -54.65 209.337C-51.0901 208.858 -47.6926 207.199 -44.2254 206.083C-44.3182 205.725 -44.411 205.361 -44.5037 205.002C-45.0951 205.072 -45.7096 205.072 -46.2778 205.216C-51.6815 206.627 -53.8441 205.667 -55.8675 200.442C-56.5865 198.586 -58.233 196.702 -56.7952 194.401C-56.7198 194.28 -57.833 193.638 -57.9954 193.118C-58.6389 191.032 -59.4564 188.916 -59.6071 186.772C-60.0768 180.153 -60.2565 173.518 -60.5754 166.888C-60.6276 165.836 -60.8131 164.79 -61.4103 163.738C-64.5411 170.541 -64.5411 177.766 -64.1063 184.893C-63.6772 191.904 -61.7176 198.673 -58.6447 205.384H-66.3849C-64.2571 203.465 -65.9674 202.176 -66.8893 200.632C-68.2866 198.292 -69.6433 195.904 -70.7333 193.419C-71.8523 190.87 -72.7335 188.199 -73.4989 185.523C-73.8177 184.408 -73.5394 183.124 -73.5684 181.922C-73.6496 178.5 -74.038 175.055 -73.7365 171.668C-73.5046 169.05 -72.9074 166.57 -75.2034 164.252C-75.7426 166.928 -76.3746 169.564 -76.7804 172.234C-77.4298 176.5 -77.94 180.783 -78.456 185.066C-78.5256 185.65 -78.4038 186.309 -78.2009 186.876C-76.9254 190.407 -75.5281 193.899 -74.3337 197.459C-74.0206 198.384 -74.2874 199.5 -74.2874 200.372C-73.8989 200.436 -73.1973 200.338 -72.8901 200.644C-72.3509 201.176 -72.0436 201.95 -71.6493 202.627C-70.7216 204.228 -71.1971 205.037 -73.0814 205.135C-75.731 205.28 -77.5921 204.592 -78.3459 201.621C-79.1576 198.419 -80.7114 195.401 -81.5173 192.193C-83.3088 185.043 -84.7931 177.835 -82.874 170.402C-82.7116 169.778 -83.8074 168.824 -84.3234 168.027C-84.7931 168.524 -85.5352 168.957 -85.6917 169.535C-87.3325 175.76 -88.1791 182.095 -87.6283 188.523C-87.4775 190.315 -86.4223 192.014 -86.1788 193.812C-85.7092 197.274 -84.3698 200.378 -82.8334 203.447C-82.7001 203.713 -82.816 204.106 -82.816 205.141C-86.0744 204.343 -89.0893 203.603 -92.1042 202.864L-92.5332 202.158C-89.1995 200.118 -90.1793 198.037 -91.6172 195.644C-92.4637 194.234 -92.4579 192.344 -93.0029 190.725C-93.3392 189.731 -94.1914 188.893 -94.4639 187.887C-96.0699 182.015 -97.5484 176.119 -95.5713 169.957C-95.8438 170.437 -96.1105 170.922 -96.6323 171.847C-97.0729 170.529 -97.3861 169.605 -97.9774 167.83C-98.6848 169.24 -99.2935 170.003 -99.4617 170.853C-100.807 177.61 -99.9371 184.327 -98.7485 190.98C-98.3775 193.078 -96.957 194.968 -96.3598 197.055C-96.1221 197.881 -96.8295 198.968 -97.1078 199.939C-97.8325 199.349 -98.8993 198.916 -99.2298 198.153C-102.343 191.066 -104.599 183.743 -105.167 175.968C-105.202 175.448 -105.77 174.968 -106.089 174.471C-106.419 174.992 -106.964 175.477 -107.045 176.032C-107.666 180.124 -108.269 184.223 -106.639 188.263C-106.303 189.095 -106.315 190.061 -106.094 191.413C-107.358 190.639 -108.199 190.124 -109.318 189.436C-111.168 194.089 -105.515 195.43 -105.463 198.985C-107.99 199.066 -109.875 197.083 -110.211 194.014C-112.704 193.61 -120.63 184.009 -120.995 181.003C-123.65 181.963 -123.418 179.003 -125.1 178.211C-127.1 180.674 -125.065 182.731 -124.172 184.876C-123.268 187.049 -122.334 189.217 -121.175 191.945C-122.444 191.945 -123.975 192.419 -124.787 191.864C-128.115 189.581 -131.431 187.199 -134.336 184.419C-136.249 182.587 -137.409 179.991 -138.992 177.795C-139.397 177.234 -140.122 176.899 -140.702 176.46C-141.021 177.136 -141.722 177.887 -141.601 178.471C-140.992 181.338 -140.25 184.188 -139.38 186.985C-138.963 188.338 -138.151 189.563 -137.38 191.136C-134.904 192.529 -131.947 194.188 -128.567 196.089C-131.379 197.956 -134.087 197.124 -135.913 197.263C-137.13 195.61 -138.203 194.523 -138.835 193.222C-140.082 190.685 -143.166 190.436 -144.656 188.211C-147.538 183.893 -151.457 180.234 -152.988 175.061C-153.08 174.749 -153.376 174.506 -153.544 174.206C-154.373 172.726 -155.191 171.235 -156.13 169.541C-156.756 168.668 -157.933 167.691 -158.229 166.495C-159.162 162.761 -159.771 158.94 -160.49 155.154C-160.989 152.541 -161.458 149.923 -161.928 147.368C-165.43 154.015 -163.598 160.663 -161.371 167.229C-161.035 168.229 -159.562 168.847 -158.13 170.061C-158.872 175.205 -155.886 180.072 -153.817 185.211C-151.689 190.477 -147.961 194.511 -143.102 198.54C-143.821 198.829 -144.163 198.945 -144.488 199.101C-146.824 200.211 -149.793 198.922 -151.944 201.263C-152.425 201.789 -154.483 200.973 -155.776 200.627C-157.527 200.158 -159.244 199.552 -161.122 198.956C-160.345 195.881 -162.044 194.413 -164.218 192.702C-166.16 191.17 -167.494 188.72 -168.729 186.477C-170.555 183.165 -172.271 179.754 -173.611 176.229C-174.463 173.98 -174.602 171.448 -174.973 169.032C-175.246 167.275 -175.373 165.501 -176.034 163.72C-178.116 167.853 -180.011 172.096 -178.985 176.639C-178.104 180.541 -176.069 184.165 -174.962 188.032C-174.074 191.118 -171.726 193.373 -170.596 196.326C-173.327 196.968 -175.454 195.951 -176.637 193.766C-180.249 187.107 -181.867 180.113 -180.852 172.518C-180.4 169.136 -180.643 165.662 -180.151 162.287C-179.333 156.628 -175.506 152.634 -171.79 148.686C-171.129 147.981 -169.888 147.825 -169.111 147.495C-168.421 146.484 -167.929 145.235 -167.013 144.507C-163.743 141.912 -160.496 139.235 -156.93 137.085C-153.231 134.854 -149.161 133.241 -145.294 131.282C-143.212 130.23 -141.235 128.97 -139.16 127.901C-137.664 127.132 -136.568 127.351 -136.58 129.374C-136.591 131.051 -136.794 132.756 -136.533 134.386C-136.191 136.519 -135.727 138.704 -134.858 140.663C-132.846 145.195 -130.486 149.565 -128.457 154.085C-128.109 154.853 -128.724 156.056 -128.764 157.177C-127.842 155.686 -127.1 155.391 -125.645 156.692C-122.92 159.137 -120.288 159.033 -118.2 156.588C-117.366 158.235 -114.003 158.507 -116.328 161.564C-112.884 160.379 -110.321 163.183 -110.443 167.119C-109.567 166.807 -108.576 166.425 -107.567 166.107C-106.454 165.755 -104.471 165.622 -104.372 165.102C-104.123 163.801 -104.668 162.321 -104.999 160.94C-105.19 160.131 -105.584 159.374 -105.886 158.593L-105.805 158.68C-107.84 156.986 -110.049 155.455 -111.881 153.559C-117.064 148.212 -118.885 141.143 -121.134 134.374C-122.398 130.583 -122.885 126.542 -123.801 122.635C-124.091 121.398 -124.636 120.224 -125.065 119.022C-125.361 119.051 -125.651 119.08 -125.946 119.103C-126.201 123.195 -126.706 127.288 -126.648 131.374C-126.596 135.293 -124.271 139.022 -124.781 143.172C-122.015 145.466 -122.23 149.721 -120.201 152.819C-120.346 152.987 -120.496 153.154 -120.641 153.322C-121.308 152.825 -122.073 152.414 -122.63 151.807C-126.016 148.12 -127.836 143.571 -129.506 138.964C-130.283 136.825 -131.106 134.658 -131.46 132.438C-131.93 129.496 -132.133 126.473 -129.947 123.901C-129.535 123.415 -129.292 122.565 -129.361 121.93C-129.953 116.496 -127.21 111.855 -125.749 106.936C-123.906 100.751 -120.52 95.3293 -115.145 91.7051C-111.173 89.0289 -107.642 85.3527 -102.43 84.7862C-100.152 84.5377 -99.4559 82.6996 -99.3979 80.7401C-99.2645 76.064 -97.2295 72.1045 -94.7423 68.359C-94.1451 67.4573 -92.7072 66.781 -91.5766 66.6365C-90.2663 66.4689 -89.6575 67.4631 -89.2748 68.9254C-88.5733 71.6248 -85.8077 72.1161 -83.6103 72.4802C-82.3174 72.6941 -80.4273 71.7115 -79.4011 70.6768C-74.9715 66.2145 -70.7681 61.5326 -66.466 56.9489C-66.2515 56.7177 -65.8688 56.6368 -65.0513 56.238C-65.405 58.3651 -65.7065 60.0991 -65.979 61.8332C-67.098 68.9775 -68.2286 76.1564 -66.495 83.3239C-65.979 85.4625 -64.6919 87.4856 -63.428 89.3352C-62.8366 90.208 -61.4625 90.5548 -59.9493 91.4219C-59.9493 90.0173 -59.7173 89.1907 -59.984 88.578C-64.2049 78.8327 -62.7786 68.7 -62.1698 58.6194C-61.8103 52.7294 -60.7493 47.0995 -56.6386 42.5043C-55.1428 40.828 -53.618 39.1864 -52.1047 37.5275C-51.8786 37.6663 -51.6525 37.805 -51.4322 37.9437C-51.8322 40.6373 -52.3772 43.3193 -52.6033 46.0302C-53.2933 54.3999 -53.5426 62.7522 -50.3421 70.7751C-49.8551 71.9947 -49.5246 73.5611 -48.5912 74.2548C-45.9068 76.2489 -47.2867 77.798 -48.6492 79.6419C-59.7985 94.7802 -63.5091 111.861 -61.4103 130.265C-60.9928 133.912 -59.3115 137.432 -58.0417 140.946C-57.7518 141.756 -56.8589 142.507 -56.0588 142.929C-55.3689 143.293 -54.1108 143.507 -53.6412 143.126C-53.044 142.64 -52.6092 141.409 -52.7715 140.646C-53.1368 138.958 -53.931 137.368 -54.534 135.733C-56.9633 129.155 -57.5025 122.357 -56.8184 115.444C-55.8038 105.202 -53.7861 95.1963 -47.8143 86.5376C-45.2574 82.8268 -42.2773 79.3298 -39.0595 76.1738C-37.4187 74.5669 -34.7923 73.9831 -32.6876 72.8097C-32.131 72.4976 -31.3715 71.5785 -31.4933 71.1739C-32.5369 67.7289 -30.496 65.1336 -28.9712 62.5904C-24.3677 54.9027 -18.8945 47.8509 -11.3747 42.7528C-8.81202 41.013 -5.8377 39.7818 -2.90977 38.6893C1.85607 36.9091 3.12579 35.3542 3.41568 30.2098C3.57802 27.314 3.82155 24.4181 4.19261 21.5396C4.43032 19.7015 5.46814 18.5512 7.05096 17.2565C8.97005 15.6843 9.80493 12.7711 11.0225 10.3954C11.8922 8.70181 12.3676 6.75389 13.4924 5.27995C14.1475 4.4187 15.7304 3.88114 16.9073 3.85802C21.9341 3.77132 26.8275 4.97938 31.0831 7.48219C34.6082 9.55149 38.1217 9.85206 41.7396 9.0544C45.7517 8.16425 47.6534 9.80004 49.787 13.0138C53.486 18.5859 57.9504 23.6551 62.0901 28.9382C62.4554 29.4006 62.8148 29.8688 63.2613 30.4468C60.6174 31.8687 58.0258 33.1173 55.5907 34.6085C51.3176 37.2154 48.9173 41.4638 46.459 45.5909C42.9223 51.5329 39.2871 57.4287 36.1099 63.5672C32.4804 70.5843 31.4889 78.2778 31.3092 86.1041C31.228 89.5202 30.8976 92.9305 30.6888 96.3408C30.6656 96.6876 30.6077 97.0749 30.712 97.387C32.7877 103.537 34.8923 109.676 36.9911 115.82C37.0491 115.982 37.1361 116.149 37.252 116.277C38.1797 117.311 38.6203 119.473 40.493 118.467C41.0728 118.155 41.0149 115.97 40.6786 114.808C39.8321 111.861 38.5334 109.04 37.6347 106.104C33.4718 92.4739 33.3211 78.8095 39.0668 65.6712C43.1137 56.4171 48.8652 48.0821 57.2257 41.9898C60.2464 39.7876 63.8062 38.3136 66.8559 36.1461C69.2215 34.464 71.3957 32.389 73.2626 30.1694C77.9647 24.5742 82.1159 18.4819 87.1485 13.2103C89.7633 10.4705 93.758 9.01972 97.1672 7.04868C99.7994 5.52271 102.333 3.43029 105.186 2.78291C109.389 1.8234 113.917 1.1529 117.947 3.94473C118.295 4.18749 118.758 4.26842 119.361 4.49962C120.37 2.61529 121.698 2.57482 123.565 3.55745C127.734 5.75392 132.111 7.5689 136.233 9.84628C137.48 10.5341 138.581 12.0832 139.039 13.4705C140.964 19.2853 145.052 22.1638 150.896 23.3199C156.462 24.4239 162.121 25.447 167.432 27.3486C171.287 28.7301 174.719 31.3774 178.175 33.6953C179.062 34.2906 179.311 35.805 179.885 36.8802C181.225 39.3945 182.454 41.984 183.967 44.3944C186.234 48.007 188.594 51.5676 191.116 55.0068C194.363 59.4286 194.148 64.5787 194.792 69.752C194.16 69.8329 193.661 69.8792 193.174 69.9601C190.53 70.4109 187.863 70.7462 185.26 71.3589C182.616 71.9831 179.961 72.6941 177.45 73.7114C170.586 76.4801 166.115 81.8788 161.871 87.6937C155.494 96.4333 150.728 105.861 149.197 116.566C147.62 127.577 147.997 138.571 152.774 148.923C153.546 150.599 155.215 152.096 156.833 153.085C158.346 154.01 159.483 153.079 158.833 151.212C157.795 148.229 156.769 145.224 155.413 142.38C151.789 134.773 151.377 126.692 152.276 118.612C153.737 105.526 160.248 95.1963 170.435 86.8151C175.722 82.4684 181.677 79.8326 187.979 77.7229C191.893 76.4108 195.522 76.983 199.256 79.2604C202.126 81.0118 205.779 81.4973 208.892 82.4857C207.257 84.3701 205.355 86.5607 203.425 88.7861C205.234 90.5202 206.306 90.8612 207.744 88.8497C209.46 86.4509 211.803 84.7862 215.125 85.2429C217.311 85.5434 219.525 85.7226 221.729 85.74C223.027 85.7515 224.332 85.3527 225.636 85.1388C225.625 84.9192 225.613 84.6995 225.602 84.4799C223.816 83.7631 222.03 83.0406 220.244 82.3239C220.244 82.1909 220.244 82.058 220.244 81.9251C221.357 82.0291 222.529 81.9597 223.584 82.2719C231.098 84.5204 237.684 88.3121 243.285 93.8727C246.619 97.1847 250.196 100.277 253.814 103.289C258.261 106.999 261.212 111.398 261.34 117.375C261.427 121.415 264.012 124.132 266.679 126.698C270.262 130.155 273.99 133.455 277.603 136.883C278.478 137.715 279.301 138.686 279.864 139.744C281.8 143.386 285.006 145.409 288.416 147.536C292.132 149.854 294.074 153.929 295.443 158.021C297.814 165.119 297.466 172.229 294.654 179.165C294.04 180.679 293.958 182.656 291.407 182.835C290.688 182.887 290.167 184.835 289.43 185.818C288.665 186.841 287.743 187.754 286.96 188.644C285.563 187.188 284.345 185.91 283.128 184.639C282.884 184.656 282.635 184.679 282.392 184.697C282.2 188.673 282.305 192.881 276.715 192.667C276.571 192.349 276.327 191.823 276.089 191.297C275.973 191.321 275.852 191.344 275.736 191.367V197.829C272.802 194.979 270.807 192.245 270.663 188.91C270.094 188.673 269.364 188.592 269.242 188.28C268.268 185.754 267.404 183.188 266.517 180.633C266.187 179.685 265.885 178.737 265.253 177.853C261.948 183.616 264.836 188.87 266.355 194.326C261.832 189.922 258.794 184.569 257.095 178.697C255.385 172.772 254.585 166.587 252.927 160.391C252.712 161.246 252.475 162.096 252.289 162.963C250.179 172.772 253.263 181.743 256.898 190.598C257.42 191.864 258.354 192.991 259.218 194.084C260.928 196.245 259.942 197.916 258.412 199.632C258.759 200.124 259.183 200.725 259.844 201.656C260.337 200.06 260.754 198.713 261.16 197.39C264.343 199.066 265.729 200.638 265.995 202.511H271.335C270.981 203.424 270.755 204.008 270.738 204.054C272.558 204.054 274.634 204.551 276.269 203.921C278.049 203.228 279.417 201.494 280.884 200.28C279.585 199.765 278.42 199.309 276.849 198.69C279.945 198.101 282.281 197.65 284.612 197.205C285.464 202.372 285.401 202.575 282.699 203.505C282.931 206.765 282.786 206.47 279.545 206.661C275.939 206.875 272.39 207.944 268.807 208.615C267.839 208.794 266.859 208.887 265.879 209.02V206.048C265.299 206.164 264.592 206.309 263.891 206.453C264.157 207.268 264.424 208.089 264.708 208.967C264.668 209.02 264.528 209.285 264.476 209.274C260.261 207.921 256.493 210.771 252.335 210.493C248.051 210.204 243.731 210.43 238.56 210.43C234.635 202.852 230.396 194.662 226.123 186.407C223.433 190.153 228.286 205.499 234.217 211.216C231.057 211.216 228.489 211.228 225.915 211.204C225.578 211.204 225.172 211.095 224.923 210.886C219.125 206.216 214.957 200.349 214.238 192.933C213.977 190.251 212.348 188.182 212.423 185.483C212.498 182.818 211.832 180.13 211.02 177.523C209.107 189.101 208.822 200.413 216.516 210.453C216.406 210.696 216.296 210.933 216.186 211.176C215.032 210.655 213.472 210.441 212.806 209.551C211.205 207.436 210.115 204.956 208.66 202.725C207.019 200.205 205.21 197.8 203.175 194.922C201.622 198.846 202.555 201.968 204.358 204.991C205.031 206.118 205.924 207.164 206.335 208.378C206.637 209.268 206.312 210.372 206.271 211.384C205.964 211.366 205.657 211.355 205.355 211.337C205.257 210.702 205.152 210.066 205.054 209.436C204.903 209.43 204.712 209.355 204.607 209.418C203.836 209.915 202.961 210.985 202.352 210.852C200.856 210.511 199.459 209.667 198.073 208.933C197.412 208.586 196.775 208.106 196.276 207.551C194.577 205.644 192.925 203.696 191.342 201.696C191.267 201.604 191.899 200.661 192.328 200.528C193.064 200.303 193.899 200.407 194.722 200.199C193.69 200.054 192.594 200.089 191.649 199.719C190.791 199.384 189.782 198.771 189.4 198.008C186.994 193.164 186.385 187.957 186.622 182.61C186.698 180.824 186.634 179.032 186.385 177.24C182.854 183.067 181.955 189.246 183.225 195.858C184.263 201.268 186.431 206.095 189.759 210.453C190.095 210.892 190.223 211.493 190.449 212.019C189.829 212.158 189.156 212.534 188.6 212.407C182.836 211.083 179.149 207.043 177.555 200.58C175.862 193.714 175.259 186.772 175.38 179.726C175.404 178.304 175.038 176.876 174.847 175.448C174.557 175.425 174.267 175.408 173.971 175.385C173.467 177.281 172.945 179.176 172.452 181.072C170.597 188.257 170.325 195.436 172.11 202.708C172.464 204.158 171.873 205.84 171.722 207.413C172.128 207.043 172.539 206.673 172.905 206.338C174.128 208.563 175.253 210.597 176.354 212.644C176.754 213.389 177.085 214.17 177.444 214.933C176.459 214.898 175.27 215.216 174.528 214.777C170.951 212.649 170.835 212.112 171.948 207.32C168.707 208.915 168.382 208.84 166.979 205.702C163.46 197.829 163.779 189.61 165.002 181.361C165.541 177.749 166.388 174.177 167.095 170.587C166.881 170.419 166.672 170.252 166.457 170.09C165.692 170.755 164.672 171.275 164.202 172.102C159.448 180.471 157.911 189.575 158.393 199.06C158.474 200.702 159.257 202.291 159.477 203.939C159.744 205.921 159.749 207.939 159.871 209.944C159.506 210.025 159.135 210.106 158.77 210.181C157.94 208.181 157.001 206.216 156.294 204.176C153.331 195.679 153.83 186.997 155.459 178.385C156.404 173.391 158.074 168.535 159.407 163.616C159.558 163.061 159.651 162.489 159.871 161.437C155.737 164.373 154.241 168.443 152.682 172.379C150.073 178.974 148.844 185.876 148.664 192.968C148.606 195.234 148.27 197.494 148.026 200.118C148.948 200.679 152.96 213.077 152.067 214.759C148.774 211.592 147.052 207.8 145.713 203.43C141.886 190.962 141.011 178.281 141.585 165.402C141.73 162.183 142.014 158.969 142.234 155.755C141.944 155.669 141.648 155.576 141.358 155.489C140.582 157.605 139.341 159.674 139.115 161.848C138.367 169.09 137.862 176.367 137.515 183.645C137.352 187.055 137.723 190.488 137.926 193.91C138.065 196.24 138.019 198.396 135.578 199.713C135.201 199.916 135.184 200.794 134.992 201.395C135.207 201.413 135.311 201.436 135.323 201.419C135.364 201.343 135.346 201.216 135.398 201.17C136.471 200.309 137.555 199.459 138.697 198.552C139.961 203.101 141.306 207.933 142.646 212.759C138.703 213.488 137.88 212.967 136.587 209.245C135.132 205.049 133.56 200.887 132.053 196.708C131.873 196.211 131.746 195.696 131.653 195.176C130.134 186.905 128.626 178.639 127.125 170.362C126.852 168.865 126.626 167.356 126.33 165.541C124.51 167.373 123.901 171.489 124.278 178.483C124.51 182.691 124.98 186.887 124.811 191.274C121.652 182.951 118.486 174.622 115.326 166.298C115.025 166.356 114.723 166.408 114.422 166.466C114.798 168.853 114.909 171.327 115.616 173.61C117.292 179.044 119.669 184.298 120.927 189.818C121.541 192.517 122.568 194.245 124.933 195.615C125.235 195.378 125.681 195.026 126.4 194.453C126.725 195.846 127.183 197.014 127.177 198.176C127.177 198.627 126.197 199.199 125.559 199.488C124.608 199.916 123.565 200.147 122.562 200.459C124.284 200.349 126.006 200.239 127.612 200.135C128.023 201.193 128.273 201.933 128.597 202.638C130.644 207.135 130.18 207.823 125.351 207.442C124.005 207.337 120.654 202.395 121.182 201.153C121.327 200.806 122.005 200.685 122.434 200.459C119.367 200.367 118.248 197.829 117.437 195.719C116.068 192.17 115.39 188.355 114.445 184.645C114.306 184.095 114.265 183.517 114.184 182.951C113.94 182.916 113.697 182.882 113.453 182.847C113.077 184.598 112.624 186.338 112.346 188.101C112.126 189.483 112.195 190.916 111.975 192.297C111.853 193.06 111.395 193.766 111.349 194.471C111.088 196.372 110.827 198.274 110.549 200.315H112.763C112.618 199.257 112.491 198.338 112.363 197.424C113.575 201.372 117.268 204.418 116.752 208.811C117.465 209.303 118.3 209.69 118.822 210.332C119.008 210.557 118.579 211.736 118.196 211.892C116.138 212.719 112.891 209.777 113.245 207.499C110.282 206.944 109.749 205.759 111.059 202.661C107.928 203.13 105.041 196.592 106.38 192.28C106.015 192.795 105.649 193.309 105.145 194.008C102.09 189.176 100.773 183.876 99.3878 178.593C99.2022 177.876 98.5935 177.263 98.1876 176.604C97.7702 177.292 97.0165 177.968 96.9991 178.668C96.9237 181.396 97.086 184.13 97.1498 186.858C97.1846 188.257 97.1962 189.656 97.2193 191.055C97.6774 191.032 98.3499 190.806 98.5586 191.026C100.779 193.326 101.347 201.528 99.3762 204.199C99.0283 204.667 97.2831 204.858 97.0976 204.575C96.3323 203.419 95.2945 201.904 95.5206 200.748C95.8916 198.864 95.5612 196.771 97.0918 195.003C97.7876 194.193 97.2715 192.349 97.3005 190.98C96.7381 191.893 96.1468 192.795 95.6134 193.731C94.9118 194.962 94.2567 196.216 93.2594 198.066C91.033 194.326 87.5195 191.962 89.9082 187.061C88.969 187.575 88.5284 187.818 88.0124 188.101C83.4436 181.824 84.3365 173.674 80.881 167.032C80.5737 167.073 80.2606 167.113 79.9533 167.154C80.5215 174.714 81.0897 182.28 81.6115 189.841C81.6173 189.951 80.9969 190.101 80.3128 190.373C83.5654 191.477 84.7366 193.927 83.9828 196.754C84.7366 197.228 85.5772 197.615 86.2208 198.205C86.6093 198.557 86.5803 199.343 86.9455 199.748C89.0966 202.135 90.2155 204.632 87.7282 207.667C87.9717 207.725 88.2095 207.783 88.453 207.84C88.9574 207.02 89.4618 206.199 89.9662 205.378C90.5518 208.274 94.0885 209.736 93.4102 213.048C93.3638 213.285 94.1639 213.962 94.2508 213.91C95.9844 212.846 96.1409 214.407 96.0946 215.239C96.0482 216.141 95.3524 217.008 94.7669 218.268C93.6421 215.973 91.1374 213.511 89.514 212.649C89.0038 212.378 88.5864 211.904 88.1921 211.465C86.789 209.91 85.641 208.014 83.977 206.84C82.0463 205.482 81.4086 204.424 82.2493 202.343C82.9972 200.494 83.5016 198.546 84.1162 196.644C83.3509 198.367 82.6609 200.124 81.7739 201.783C81.5245 202.251 80.707 202.413 80.1447 202.713C79.9881 201.95 79.8316 201.187 79.675 200.424C79.5765 200.523 79.4779 200.627 79.3793 200.725C78.5444 199.76 77.4602 198.922 76.9152 197.818C73.193 190.315 70.6767 182.413 69.291 174.148C69.1113 173.084 68.6127 172.078 68.259 171.044C67.8822 171.078 67.5111 171.113 67.1342 171.148C67.0937 175.061 66.7168 179.003 67.0995 182.87C67.4705 186.604 68.6243 190.257 68.8156 194.032C69.291 194.43 69.9752 194.737 70.2071 195.251C72.0044 199.135 73.7148 203.06 75.4426 206.979C75.6513 207.459 75.8368 207.95 75.9818 208.447C76.2891 209.482 75.8658 211.297 78.0632 210.216C78.2719 210.112 78.9097 210.748 79.2807 211.106C81.6289 213.378 83.9713 215.655 86.273 217.979C86.6557 218.366 87.1253 219.094 86.9919 219.464C86.8412 219.88 86.0875 220.198 85.5425 220.337C84.3017 220.649 83.0204 220.828 81.5767 221.094C81.426 220.1 81.31 219.366 81.1535 218.349C80.5273 219.013 80.0982 219.47 79.5011 220.094C75.7788 216.672 70.01 215.216 70.5144 208.135C69.6563 209.06 69.2505 209.499 68.8272 209.956C64.7107 205.181 59.5216 187.754 60.8783 185.564C60.1594 184.332 59.3419 183.529 59.2259 182.633C58.565 177.587 58.078 172.518 57.5098 167.454C57.3938 166.431 57.1793 165.42 56.4024 164.241C55.956 165.183 55.2776 166.09 55.1037 167.079C54.118 172.726 53.602 178.385 54.5239 184.13C54.9877 187.026 55.7936 190.061 53.9731 192.852C54.7442 191.639 55.7936 191.205 55.9734 192.968C56.2401 195.604 55.9849 198.292 55.9559 200.95C56.3328 200.395 56.7097 199.841 57.3416 198.916C59.0752 204.089 60.6058 208.667 62.1365 213.245L61.1392 213.678C60.5884 212.846 60.2348 211.644 59.4636 211.251C55.8806 209.441 55.0631 206.546 55.6777 202.921C55.3066 203.725 54.9355 204.534 54.3731 205.754C52.1815 202.21 52.3555 199.031 53.3643 195.771C52.9585 196.517 52.5526 197.263 52.1525 198.008C51.8858 198.031 51.6249 198.049 51.3582 198.072C50.1813 193.344 49.1782 188.563 47.7694 183.905C46.3605 179.252 44.882 174.668 46.3315 169.639C46.001 169.576 45.6647 169.512 45.3342 169.454C44.5457 170.732 43.3108 171.922 43.0615 173.292C42.3889 176.968 42.2266 180.512 43.5485 184.367C45.085 188.847 45.1545 193.829 45.7923 198.604C45.8503 199.037 45.4038 199.534 45.1951 199.991C45.6125 199.968 46.3895 199.916 46.3895 199.95C46.546 201.309 46.633 202.673 46.7257 204.043C46.7953 205.129 46.5634 206.349 46.9867 207.274C48.1752 209.881 49.0101 212.43 47.7636 215.216C48.5231 214.649 49.2768 214.1 50.1407 213.47C49.9262 212.673 49.6189 211.545 49.2594 210.204C52.5932 211.447 57.2141 218.713 56.4662 221.649C55.3704 221.071 54.1064 220.747 53.3933 219.938C52.5758 219.019 52.2453 217.672 51.7003 216.511C51.5728 216.782 51.4452 217.06 51.3176 217.331C50.6161 217.187 49.8102 217.216 49.242 216.857C48.6332 216.476 48.2506 215.742 47.7694 215.158C46.1981 211.725 44.5979 208.303 43.0673 204.852C42.2614 203.037 42.2846 201.436 44.6037 200.731C42.6208 202.13 41.6178 201.124 41.3047 199.211C40.2611 192.806 38.916 186.413 38.4696 179.957C37.9942 173.119 38.4058 166.223 38.429 159.356C38.429 158.102 38.429 156.842 37.8376 155.576C33.1008 169.836 33.8835 184.436 35.8373 199.112C35.4489 199.153 35.0547 199.193 34.6662 199.234C34.2545 198.239 33.6863 197.274 33.4486 196.24C31.3788 187.24 29.9409 178.159 30.6483 168.882C31.5006 157.709 33.0254 146.651 36.7302 135.993C37.484 133.825 38.2087 131.64 38.945 129.467C38.574 129.259 38.1971 129.045 37.826 128.837C36.6374 130.415 35.246 131.872 34.2951 133.582C29.1814 142.819 26.9028 152.9 25.5925 163.269C24.4387 172.391 24.1025 181.489 25.5635 190.621C25.7607 191.847 25.1287 193.205 24.8852 194.482C24.92 194.482 25.5577 194.39 26.2941 194.286C27.3145 197.656 27.9233 200.875 26.7521 204.187C27.0768 203.627 27.4073 203.077 27.7319 202.528C28.0566 202.569 28.3755 202.604 28.7002 202.644C29.4075 206.384 30.1148 210.124 30.799 213.73C30.9555 213.418 31.2165 212.91 31.4716 212.395C31.7441 212.505 32.0224 212.609 32.2949 212.719C32.7413 214.083 32.9326 215.626 33.7153 216.765C34.4691 217.869 35.8315 218.563 36.9273 219.435C36.6896 219.817 36.4577 220.204 36.22 220.586C34.9909 220.048 33.6863 219.626 32.5558 218.933C31.1005 218.042 29.9003 216.69 28.3871 215.95C24.5663 214.083 24.2242 213.621 24.9258 209.378C24.6764 210.031 24.4214 210.684 24.0503 211.649C19.0062 201.505 12.0777 171.813 19.0525 162.94C18.0263 161.038 16.9073 160.744 15.7245 162.801C13.1213 167.35 12.5821 172.414 11.9386 177.494C10.7152 187.182 13.6895 196.24 15.7593 205.465C16.3913 208.297 18.177 211.274 16.026 213.904C14.3331 212.412 12.5531 211.014 11.0167 209.384C10.6108 208.95 10.8312 207.8 10.9645 207.014C11.1327 206.02 11.5037 205.066 11.2254 203.939C10.808 205.187 10.3847 206.436 9.96726 207.679C9.70056 207.719 9.43386 207.765 9.16716 207.806C8.57577 206.522 7.85687 205.286 7.42203 203.95C6.55235 201.291 6.00154 198.523 5.0217 195.904C3.16639 190.933 3.3635 185.945 4.27956 180.847C5.42754 174.46 6.40158 168.038 6.85962 161.512C5.42175 168.281 3.98387 175.044 2.546 181.812C2.2909 181.806 2.03579 181.801 1.78068 181.795C1.50818 178.506 1.22989 175.217 0.957393 171.928C0.661702 171.853 0.365993 171.778 0.0703022 171.708C-0.474697 173.223 -1.5183 174.749 -1.47191 176.246C-1.24 183.084 -1.03128 189.956 -0.132609 196.725C0.33122 200.205 2.22134 203.499 3.54325 207.083C2.12857 207.389 1.05016 207.806 -0.0166445 207.788C-0.73558 207.777 -1.83718 207.326 -2.09229 206.765C-4.7709 200.864 -7.66403 195.026 -9.76866 188.922C-11.1196 185.009 -11.2645 180.685 -11.9255 176.541C-12.169 175.038 -12.3487 173.518 -12.8241 172.009C-13.9199 174.142 -15.5491 175.784 -14.8708 178.662C-14.1808 181.581 -15.1839 184.91 -14.4475 187.806C-13.2126 192.662 -11.2355 197.344 -9.46716 202.054C-8.79461 203.852 -7.61767 205.488 -7.10166 207.314C-6.88713 208.072 -7.80318 209.141 -8.20323 210.072C-8.93956 209.707 -9.6991 209.401 -10.4006 208.979C-11.8501 208.1 -13.2648 207.164 -14.691 206.257C-18.106 204.089 -19.225 200.372 -20.4193 196.962C-22.3964 191.315 -23.9039 185.488 -25.3301 179.668C-26.1071 176.494 -26.3216 173.182 -26.7912 169.928C-27.0347 169.876 -27.2782 169.824 -27.5159 169.772C-27.7768 170.385 -28.1653 170.98 -28.2812 171.622C-29.2321 176.859 -29.2437 182.043 -28.2233 187.327C-27.7536 189.754 -28.5421 192.419 -28.7567 194.962C-28.3102 194.407 -27.8638 193.864 -27.3072 193.182C-26.9651 193.783 -26.7796 193.991 -26.7216 194.234C-25.1504 200.534 -23.8807 206.973 -18.2162 211.274C-17.9784 211.453 -18.3379 212.418 -18.4191 213.014C-19.022 212.852 -19.7642 212.852 -20.1816 212.488C-20.5585 212.152 -20.5817 211.418 -20.7498 210.904C-26.0027 211.141 -30.612 203.765 -28.9944 197.968C-29.4988 198.396 -30.0032 198.823 -30.8149 199.517C-34.9082 187.644 -38.1898 176.049 -36.3403 163.616C-39.3726 167.801 -40.9033 172.772 -40.1553 179.5C-39.477 185.564 -38.1492 191.569 -36.7983 197.529C-36.1722 200.297 -34.8387 202.904 -33.7835 205.569C-32.7978 208.06 -32.8848 208.713 -34.7169 210.308C-31.9455 213.239 -28.4436 214.869 -24.675 215.788C-19.7352 216.99 -15.1433 215.511 -10.4296 213.91C-4.28389 211.823 2.26772 211.597 8.68596 212.349C10.2978 212.534 12.1647 214.534 13.0633 216.17C16.8957 223.135 23.3661 223.967 30.3062 224.366C36.1736 224.701 42.0063 225.516 47.8563 226.117C47.9433 226.129 48.0302 226.169 48.1172 226.175C57.4054 226.58 66.6298 229.123 75.9644 227.418C81.2578 226.453 86.4527 224.892 91.6476 223.441C98.2572 221.603 104.733 219.117 111.442 217.834C116.654 216.84 121.941 216.609 127.2 219.713C132.569 222.88 138.767 225.007 145.272 222.719C151.476 220.534 157.877 220.736 164.283 220.73C164.811 220.73 165.483 220.557 165.849 220.805C170.858 224.221 175.873 221.372 180.512 220.25C190.437 217.857 200.41 217.846 210.457 217.823C220.534 217.8 230.617 217.823 240.676 217.302C249.002 216.875 257.467 216.459 265.549 214.626C273.718 212.777 281.806 212.002 290.091 212.077C291.129 212.089 292.149 211.291 293.222 211.089C296.069 210.551 298.55 211.158 301.374 212.291C306.348 214.279 311.775 215.222 317.074 216.314C321.174 217.158 325.354 217.944 329.517 218.048C332.613 218.123 336.109 219.204 338.869 216.545C339.072 216.349 339.547 216.395 339.895 216.389C346.765 216.187 353.642 216.025 360.512 215.788C367.035 215.563 373.563 215.32 380.08 214.985C387.333 214.615 394.58 214.037 401.833 213.759C406.866 213.568 411.916 213.615 416.948 213.782C419.876 213.881 422.793 214.736 425.709 214.696C430.139 214.632 434.551 214.025 438.98 213.765C440.928 213.649 442.981 213.343 444.5 215.251C444.929 215.788 445.886 215.904 446.813 216.303C447.19 215.366 447.497 214.609 448.042 213.274C451.202 213.765 454.49 214.534 457.818 214.736C462.218 215.008 466.833 215.632 471.025 214.673C477.351 213.222 483.757 213.852 490.036 212.782C503.261 210.522 516.596 210.447 529.96 210.592C535.335 210.65 540.71 210.135 546.084 210.066C548.972 210.025 550.949 208.436 553.024 206.84C553.911 206.158 554.833 205.465 555.848 205.02C559.924 203.239 562.301 200.303 560.249 195.777C558.811 192.604 556.497 190.644 553.743 188.685C550.711 186.535 547.714 184.679 544.015 184.107C544.194 184.402 544.304 184.801 544.565 184.974C548.311 187.465 552.108 189.881 555.807 192.436C556.323 192.795 556.399 193.777 556.961 195.17C558.028 195.719 558.254 197.569 557.697 199.511C556.752 202.8 553.581 203.973 550.972 204.54C546.902 205.424 542.571 205.124 538.251 205.326C538.141 203.447 538.054 201.835 537.962 200.228C537.48 201.303 537.335 202.395 537.509 203.436C537.88 205.69 536.663 205.765 535.022 205.436C534.518 205.332 533.77 205.008 533.538 205.222C531.265 207.337 528.482 206.852 525.832 206.719C524.528 206.655 523.252 206.025 522.075 205.679C520.214 206.083 518.284 206.644 516.312 206.875C515.379 206.985 513.634 206.615 513.547 206.205C513.303 205.02 513.605 203.673 513.912 202.447C514.335 200.765 514.956 199.135 515.495 197.482C515.257 197.413 515.019 197.349 514.782 197.28C513.773 200.436 512.764 203.586 512.033 205.864C510.828 206.442 510.265 206.916 509.668 206.962C504.253 207.407 498.907 208.702 493.422 208.314C492.669 208.262 491.758 208.17 491.167 208.511C487.943 210.361 487.723 210.326 486.534 206.84C486.308 206.181 486.32 205.436 486.076 204.788C484.813 201.401 483.496 198.031 482.198 194.644C479.536 195.419 479.531 197.205 479.867 198.945C480.418 201.783 481.218 204.575 481.827 207.401C482.209 209.199 481.885 210.089 479.542 210.476C475.432 211.147 473.431 207.869 471.182 206.06C468.921 204.245 468.613 200.216 466.828 197.569C464.758 194.5 464.062 191.205 463.685 187.714C463.523 186.205 463.389 184.691 463.215 182.934C460.891 184.818 460.444 186.962 460.49 189.344C460.519 190.922 460.311 192.5 460.398 194.072C460.461 195.234 460.676 196.43 461.088 197.511C461.928 199.713 463.07 201.812 463.813 204.043C464.05 204.76 463.685 206.106 463.117 206.517C462.647 206.858 461.354 206.453 460.653 206.014C458.542 204.702 458.119 202.586 458.212 200.268C458.276 198.725 458.223 197.176 458.223 195.633C458.026 195.633 457.829 195.621 457.632 195.615C457.249 196.916 456.867 198.222 456.362 199.945C455.806 199.153 455.429 198.789 455.255 198.344C454.252 195.766 453.516 193.066 452.275 190.61C450.048 186.194 450.095 181.483 449.886 176.76C449.846 175.882 449.498 175.021 449.295 174.148C448.512 174.824 447.196 175.402 447.045 176.2C446.512 179.009 445.874 181.945 446.199 184.731C446.836 190.136 447.642 195.604 449.26 200.771C450.344 204.239 452.947 207.233 455.052 210.73C451.701 210.73 448.796 210.73 445.891 210.73C443.868 210.73 442.395 210.256 442.766 207.719C442.9 206.788 442.674 205.806 442.61 204.846L442.117 204.881C441.966 205.881 441.821 206.881 441.636 208.112C441.149 207.742 440.789 207.598 440.633 207.337C437.827 202.656 435.519 197.8 435.218 192.205C435.102 190.014 434.841 187.824 434.423 185.673C434.29 184.986 433.461 184.425 432.951 183.812C432.58 184.442 431.953 185.049 431.884 185.714C431.461 189.858 431.153 194.02 430.829 198.176C430.811 198.396 431.008 198.638 431.118 198.87C431.733 200.199 432.423 201.494 432.945 202.858C433.855 205.245 434.667 207.667 435.739 210.713C434.354 210.222 433.246 210.176 432.887 209.638C431.849 208.077 431.055 206.349 430.272 204.638C429.495 202.927 428.765 201.187 428.196 199.401C428.017 198.829 428.422 198.072 428.562 197.396C428.475 196.586 427.332 195.8 426.822 194.714C424.37 189.459 423.703 183.824 423.645 178.09C423.604 174.223 423.552 170.356 423.465 166.489C423.454 165.888 423.204 165.298 423.065 164.703C422.752 164.686 422.445 164.662 422.132 164.645C421.366 168.206 420.236 171.737 419.917 175.344C419.482 180.217 419.639 185.142 419.61 190.049C419.604 191.234 419.627 192.529 420.068 193.592C421.013 195.875 422.427 197.974 423.297 200.274C424.544 203.563 425.477 206.962 426.654 210.655C424.735 210.493 423.222 210.361 421.598 210.222C421.598 208.707 421.413 207.291 421.639 205.944C422.039 203.534 422.138 203.551 420.555 202.991C420.555 204.892 420.729 206.69 420.474 208.43C420.363 209.158 419.198 210.395 418.757 210.297C415.795 209.638 412.304 210.886 410.055 207.892C408.536 209.598 407.098 210.025 404.906 209.378C403.179 208.869 401.08 209.297 399.207 209.644C397.288 209.996 396.25 209.777 396.731 207.661C395.212 207.517 394.18 211.355 392.684 208.644C391.612 209.048 390.696 209.603 389.733 209.713C388.127 209.887 386.469 209.615 384.869 209.829C382.973 210.077 382.08 209.436 382.15 207.384C381.802 208.124 381.535 208.696 381.042 209.742C380.086 207.528 379.129 205.829 378.613 204.014C377.633 200.563 376.961 197.026 376.021 193.563C375.772 192.638 375.036 191.841 374.52 190.985C373.807 191.506 372.786 191.87 372.438 192.569C371.429 194.598 370.687 196.76 369.841 198.87C370.212 198.818 370.89 198.685 370.902 198.725C371.534 201.17 372.172 203.621 372.618 206.106C372.67 206.384 371.424 207.309 371.053 207.181C368.913 206.43 367.278 201.378 368.386 199.361C368.125 200.112 367.864 200.864 367.609 201.621C362.547 194.078 363.017 186.431 361.127 179.2C360.24 180.465 359.7 181.76 359.405 183.113C358.86 185.61 358.46 188.136 358.118 189.991C359.132 194.107 360.054 197.841 360.901 201.291C359.666 202.164 358.663 202.881 358.002 203.349C359.184 203.603 360.558 203.488 361.15 204.112C362.878 205.933 364.286 208.048 365.95 210.21C357.468 211.892 356.216 211.47 353.781 207.835C353.259 207.06 352.975 206.129 352.494 205.326C349.885 200.979 347.235 196.65 347.826 191.245C347.85 191.008 347.873 190.581 347.78 190.546C345.374 189.673 346.133 187.396 345.849 185.766C345.478 183.633 345.855 181.39 345.699 179.205C345.554 177.252 345.049 175.327 344.835 173.379C344.475 170.142 344.226 166.888 343.93 163.645C343.217 164.079 342.956 164.524 342.904 164.992C342.231 171.148 341.547 177.298 340.973 183.46C340.834 184.939 340.736 186.575 341.217 187.928C342.156 190.581 342.881 193.107 341.46 195.373C342.057 195.754 342.829 195.956 342.968 196.372C344.185 199.933 345.339 203.517 346.365 207.129C346.504 207.626 345.867 208.337 345.594 208.95C348.8 207.887 348.325 210.811 350.087 212.551C347.003 212.904 344.759 213.164 342.515 213.418C342.382 213.193 342.255 212.962 342.121 212.736C343.217 211.482 344.313 210.233 345.409 208.979C343.136 209.551 339.298 206.407 339.576 204.17C339.617 203.864 339.941 203.609 340.04 203.297C340.399 202.124 340.724 200.939 341.06 199.754C340.782 199.685 340.504 199.615 340.231 199.552C339.704 200.361 339.176 201.17 338.364 202.413C337.61 200.968 336.781 200.026 336.636 198.991C336.161 195.627 333.714 193.008 333.871 189.194C333.987 186.327 331.691 183.338 330.352 180.46C329.865 179.402 329.047 178.5 328.38 177.529C328.09 178.755 328.74 179.772 328.467 180.344C327.656 182.015 328.085 183.471 328.363 185.153C329.256 190.563 329.824 196.026 330.554 201.465C330.595 201.754 330.955 201.997 331.14 202.28C332.462 204.303 334.016 206.222 335.001 208.395C335.593 209.69 335.286 211.395 335.378 212.91C332.52 212.91 329.621 213.199 326.832 212.777C325.678 212.603 324.762 210.904 323.812 209.967C323.771 209.268 323.904 208.378 323.626 207.626C323.029 206.002 322.014 204.511 321.556 202.858C321.029 200.939 321.058 198.87 320.559 196.939C320.327 196.026 319.428 195.286 318.524 194.037C317.48 198.644 316.634 202.39 315.793 206.129C316.321 204.921 316.848 203.725 317.376 202.528L318.025 202.719V209.592C317.886 209.592 317.747 209.592 317.614 209.592C317.016 208.413 316.425 207.233 315.828 206.054C315.41 205.627 315.063 205.072 314.564 204.788C311.787 203.205 309.989 198.656 310.824 195.979C310.123 194.922 309.195 194.164 309.172 193.384C308.969 187.038 308.743 180.685 308.923 174.344C309.033 170.535 309.85 166.743 310.355 162.876C308.343 162.801 307.485 164.079 307.085 165.853C305.995 170.743 304.626 175.593 303.925 180.535C303.276 185.101 303.351 189.772 303.102 194.39C303.067 194.985 302.8 195.656 302.991 196.159C304.493 200.06 306.157 203.904 307.612 207.829C308.134 209.233 307.525 210.216 305.792 210.193C302.499 210.152 304.052 208.303 304.377 206.754C303.844 207.378 303.31 207.996 302.296 209.176C301.501 206.898 300.835 204.985 300.116 202.945C299.478 204.395 298.921 205.667 298.365 206.939L297.472 206.47C296.405 202.563 300.179 201.661 302.093 199.471C301.577 199.615 301.055 199.76 300.017 200.054C300.504 198.592 300.852 197.534 300.985 197.13C299.229 194.927 300.951 193.066 300.968 190.985C298.144 192.974 301.316 197.488 297.124 198.17C298.075 199.968 297.199 204.777 295.738 205.459C294.561 206.008 293.17 206.124 291.86 206.326C291.697 206.349 291.43 205.742 291.309 205.563C292.393 204.731 293.297 204.043 294.202 203.349C294.051 203.234 293.906 203.124 293.755 203.008C290.741 203.991 287.726 204.973 284.711 205.962L284.514 205.291C286.212 204.54 286.12 204.557 285.801 202.511C285.662 201.598 285.667 200.089 286.189 199.754C288.445 198.32 289.668 196.419 290.804 193.997C291.97 191.506 294.469 189.662 296.225 187.413C300.458 181.997 301.965 175.414 302.284 168.934C302.748 159.559 298.649 151.177 294.092 143.178C293.263 141.727 291.691 140.692 290.445 139.478C288.653 137.733 286.868 135.987 285.053 134.265C282.345 131.692 279.742 128.981 276.866 126.617C273.846 124.138 270.454 122.103 267.398 119.658C265.305 117.982 265.688 115.508 268.256 114.993C274.744 113.693 281.012 110.392 287.917 112.323C289.106 112.652 290.596 113.3 291.135 114.259C292.515 116.716 293.396 119.45 294.573 122.034C294.985 122.941 295.547 123.854 296.26 124.531C297.13 125.357 298.382 125.797 299.217 126.646C301.438 128.912 304.105 129.646 307.16 129.374C309.178 129.195 311.213 129.103 313.213 128.802C315.886 128.403 318.524 127.542 321.203 127.415C329.754 127.022 338.324 126.56 346.87 126.756C352.708 126.889 358.657 127.739 362.564 133.114C362.901 133.577 363.463 133.889 363.956 134.218C365.962 135.559 368.061 136.773 369.963 138.241C371.354 139.316 371.186 140.663 370.096 142.074C365.133 148.518 360.895 155.408 359.468 163.53C358.744 167.657 359.068 171.928 362.657 174.969C363.602 175.766 365.058 175.963 366.281 176.437C366.501 175.148 367.139 173.76 366.867 172.581C365.887 168.327 365.979 164.229 367.91 160.281C369.412 157.212 370.937 154.154 372.595 151.172C374.931 146.964 377.21 142.605 382.874 142.091C383.124 142.068 383.367 141.906 383.605 141.785C387.907 139.663 392.047 137.051 396.552 135.519C404.06 132.97 411.806 131.033 419.882 131.704C421.407 131.831 423.419 132.068 424.283 133.056C426.492 135.582 428.475 138.409 430.005 141.391C431.646 144.594 432.603 148.189 436.539 149.443C438.215 149.975 439.949 150.339 441.659 150.767C446.048 151.854 448.843 154.576 449.422 159.05C450.443 166.917 455.638 170.391 462.688 171.87C467.396 172.859 472.173 173.506 476.922 174.31C480.702 174.945 484.465 175.766 488.274 176.165C492.645 176.627 497.081 176.477 501.435 177.044C504.804 177.477 508.091 178.587 511.407 179.431C511.947 179.57 512.422 180.09 512.95 180.124C513.993 180.194 515.106 179.818 516.104 180.032C520.504 180.963 524.87 182.032 529.253 183.049C529.56 183.119 530.065 183.338 530.14 183.234C531.677 181.113 533.259 183.015 534.836 183.09C537.509 183.217 536.959 185.223 537.312 186.754C537.335 186.847 537.608 186.881 537.979 187.032C537.741 184.321 539.394 184.038 541.463 184.228C542.333 184.309 543.22 184.205 544.096 184.188L544.038 184.165ZM129.16 212.661C125.919 213.043 126.371 209.991 124.33 208.32C126.47 208.118 127.751 207.921 129.038 207.887C131.514 207.817 130.319 210.401 131.462 211.32C130.754 211.765 130.053 212.216 129.345 212.661C133.056 213.233 133.259 213.447 133.491 216.944C132.198 216.343 130.754 215.881 129.6 215.025C129.125 214.673 129.282 213.476 129.154 212.667L129.16 212.661ZM-33.0761 58.0761C-33.1862 57.0472 -33.3254 56.394 -33.3138 55.7409C-33.1167 43.9435 -28.316 33.9901 -20.6513 25.3256C-17.6596 21.95 -14.0011 19.1697 -10.9166 15.8634C-6.61461 11.2451 -6.74799 11.1757 -1.30379 14.4993C0.0529114 15.3259 0.348611 16.1004 -0.0630374 17.7131C-0.915324 21.0136 -1.68066 24.395 -1.88938 27.7764C-2.06332 30.574 -3.46057 32.0075 -5.76812 32.7011C-14.1286 35.2097 -20.1758 40.7355 -25.3301 47.4174C-27.9276 50.7815 -30.3338 54.2958 -33.0704 58.0761H-33.0761ZM-44.2138 74.116C-44.6893 73.0525 -45.1937 72.0467 -45.5937 71.0005C-49.9827 59.446 -49.2174 47.6949 -46.8113 35.9091C-46.4054 33.9149 -45.9764 31.5682 -44.695 30.1809C-41.1004 26.2909 -37.094 22.7708 -33.1747 19.187C-28.577 14.9906 -23.0574 12.6612 -16.9522 11.7075C-15.5897 11.4936 -14.1692 11.6786 -12.7778 11.6786C-12.6328 11.904 -12.4937 12.1237 -12.3487 12.3491C-29.8757 25.2504 -39.2624 42.0361 -37.0766 64.625C-37.9869 63.8909 -38.2826 63.7695 -38.3753 63.5614C-38.7232 62.758 -39.1697 61.9488 -39.2915 61.0991C-40.6829 51.556 -40.4568 42.1748 -36.5548 33.1288C-35.8185 31.4237 -35.4301 29.5682 -34.8793 27.7822C-35.3257 27.5625 -35.7663 27.3486 -36.2128 27.129C-37.9579 29.5451 -40.0799 31.7763 -41.3787 34.412C-45.4894 42.7586 -45.6343 51.7525 -44.7124 60.7465C-44.3298 64.4747 -43.1702 68.1509 -39.0769 70.3069C-40.9033 71.6595 -42.4745 72.8271 -44.2138 74.116ZM102.855 211.563C102.217 211.123 101.626 210.603 100.936 210.262C99.3646 209.493 99.6023 208.314 99.84 206.916C100.165 204.979 101.684 205.083 102.855 205.205C103.556 205.274 104.316 206.274 104.751 207.031C105.365 208.083 105.823 209.262 106.107 210.441C106.252 211.031 105.87 211.754 105.725 212.412C105.273 211.84 104.832 211.262 104.368 210.702C104.27 210.58 104.09 210.522 103.852 210.378C103.533 210.754 103.214 211.135 102.849 211.569L102.855 211.563ZM145.272 216.961C141.747 218.551 140.68 218.065 139.463 214.43C142.019 213.649 144.565 212.91 145.272 216.961ZM160.631 209.436C160.892 209.459 161.152 209.482 161.413 209.505C162.573 211.291 163.738 213.077 165.037 215.077C161.848 215.609 160.996 213.482 159.946 211.933C159.633 211.465 160.37 210.291 160.625 209.436H160.631ZM464.12 206.297C465.569 208.268 466.625 209.702 467.854 211.378C464.039 211.846 463.082 210.644 464.12 206.297ZM20.4614 218.025C20.2527 218.216 20.044 218.407 19.8352 218.597C18.9598 217.759 17.8408 217.048 17.2842 216.031C16.9131 215.349 17.3422 214.233 17.4117 213.308C17.6552 213.332 17.893 213.355 18.1365 213.378C18.9076 214.927 19.6845 216.476 20.4556 218.031L20.4614 218.025Z" fill="black" fill-opacity="0.12"/>
<path d="M45.427 77.4512C38.2145 96.3119 41.9019 113.768 51.5785 130.455C52.8657 132.669 54.8253 134.536 56.6748 136.369C57.3474 137.039 58.5765 137.34 59.5854 137.444C61.7248 137.657 62.809 136.132 61.7074 134.265C59.7071 130.883 57.1792 127.797 55.3645 124.328C50.3378 114.756 46.7199 104.728 46.3257 93.7513C46.1343 88.3642 45.7401 82.9828 45.427 77.4454V77.4512Z" fill="black" fill-opacity="0.12"/>
<path d="M158.225 116.444C156.833 121.369 156.775 126.415 156.961 131.502C157.303 140.918 159.952 149.634 164.805 157.703C166.695 160.848 168.481 164.05 170.417 167.159C170.846 167.853 171.652 168.581 172.406 168.737C173.49 168.963 174.922 169.032 175.728 168.477C176.209 168.148 176.134 166.321 175.711 165.472C172.835 159.761 169.855 154.102 166.805 148.484C162.869 141.235 161.239 133.392 160.428 125.294C160.126 122.3 159.622 119.323 159.21 116.34C158.88 116.375 158.549 116.404 158.225 116.438V116.444Z" fill="black" fill-opacity="0.12"/>
<path d="M-31.615 114.502C-31.7716 116.138 -32.1658 117.791 -32.0499 119.409C-31.5918 125.895 -28.7857 131.594 -25.5157 137.033C-23.5386 140.322 -21.2948 143.484 -18.8249 146.414C-17.8045 147.628 -15.9376 148.576 -14.349 148.779C-11.6704 149.125 -8.96277 144.253 -10.5456 142.033C-13.2764 138.207 -16.2275 134.53 -19.1032 130.808C-19.2829 130.571 -19.6366 130.467 -20.5527 130.559C-20.0309 132.461 -19.5091 134.357 -18.9873 136.259C-19.254 136.374 -19.5207 136.484 -19.7816 136.6C-23.4458 129.224 -27.1101 121.854 -30.7743 114.479L-31.6092 114.496L-31.615 114.502Z" fill="black" fill-opacity="0.12"/>
<path d="M-49.258 107.606C-49.6812 108.485 -50.3306 109.323 -50.4871 110.248C-51.2002 114.496 -51.9482 118.751 -52.3134 123.039C-52.441 124.56 -51.6815 126.236 -51.0611 127.733C-48.8811 132.987 -46.7475 138.27 -44.2544 143.374C-43.2282 145.472 -41.483 147.299 -39.7668 148.946C-39.1407 149.547 -37.3317 149.732 -36.636 149.264C-35.3199 148.374 -33.9226 146.987 -35.1111 145.045C-36.6592 142.513 -38.5203 140.143 -39.8654 137.507C-42.26 132.831 -44.9095 128.178 -46.4286 123.207C-47.7447 118.901 -47.6462 114.167 -48.1796 109.624C-48.2491 109.034 -48.3651 108.456 -48.4636 107.872C-48.7246 107.786 -48.9912 107.699 -49.2521 107.606H-49.258Z" fill="black" fill-opacity="0.12"/>
<path d="M-164.978 171.691C-167.065 172.09 -167.784 170.032 -167.065 163.235C-167.592 164.241 -167.888 164.813 -168.549 166.073C-169.262 163.067 -169.83 160.668 -170.393 158.27C-170.857 164.16 -172.886 169.998 -171.471 176.581C-171.031 175.986 -170.839 175.772 -170.706 175.535C-170.584 175.321 -170.526 175.073 -170.422 174.812C-170.254 174.934 -170.074 174.997 -170.033 175.113C-168.735 178.645 -167.848 182.402 -166.044 185.65C-164.235 188.91 -161.615 191.754 -159.139 194.592C-157.73 196.205 -155.817 197.367 -154.269 198.875C-152.495 200.598 -150.808 199.546 -149.335 198.696C-147.769 197.789 -148.222 195.586 -149.706 194.344C-152.408 192.084 -155.492 189.991 -157.377 187.147C-158.467 185.5 -160.154 184.477 -161.006 182.714C-161.957 180.754 -163.285 178.963 -164.067 176.951C-164.664 175.414 -164.664 173.651 -164.978 171.703V171.691Z" fill="black" fill-opacity="0.12"/>
<path d="M57.0981 104.225C56.8546 106.416 56.3792 108.612 56.4198 110.797C56.5067 115.502 57.4112 119.953 59.4289 124.386C62.0669 130.178 65.7775 134.964 70.2477 139.311C70.6767 139.727 71.2565 140.027 71.8131 140.276C73.4771 141.01 75.2397 141.594 76.5964 139.837C78.098 137.894 76.4514 136.525 75.344 135.293C73.6046 133.363 71.5986 131.663 69.7781 129.796C65.7544 125.675 63.7947 120.398 61.806 115.184C60.687 112.242 59.9101 109.167 58.9361 106.167C58.7099 105.473 58.2983 104.843 57.9736 104.184C57.6779 104.196 57.388 104.213 57.0923 104.225H57.0981Z" fill="black" fill-opacity="0.12"/>
<path d="M166.834 127.317C166.66 130.606 165.101 133.582 166.486 136.987C168.429 141.767 169.188 147.044 171.281 151.738C173.687 157.137 176.743 162.316 180.059 167.223C181.352 169.142 184.025 170.292 186.286 171.327C187.162 171.726 188.634 170.83 189.834 170.529C189.527 169.437 189.504 168.125 188.855 167.304C187.968 166.171 186.506 165.506 185.463 164.477C178.824 157.94 174.493 150.021 171.629 141.253C170.243 137.022 168.968 132.75 167.605 128.507C167.466 128.074 167.101 127.716 166.84 127.328L166.834 127.317Z" fill="black" fill-opacity="0.12"/>
<path d="M-53.473 175.518C-53.1135 174.945 -52.7541 174.373 -52.3946 173.801C-52.1859 173.928 -51.9714 174.055 -51.7627 174.182C-51.6699 174.743 -51.5307 175.298 -51.4843 175.864C-51.2234 179.182 -51.3684 182.581 -50.6495 185.795C-49.3681 191.494 -49.7798 196.898 -52.4004 202.338C-51.2834 201.91 -50.174 199.151 -49.0725 194.06C-48.1448 195.823 -47.478 197.159 -46.7533 198.459C-45.6459 200.436 -44.5965 202.453 -43.3035 204.309C-42.9151 204.864 -41.8367 205.101 -41.0424 205.181C-39.2103 205.366 -37.007 204.505 -36.4794 207.852C-36.2591 207.609 -36.0389 207.361 -35.8185 207.118C-35.8939 206.528 -35.8185 205.864 -36.0736 205.361C-36.9259 203.661 -37.4883 201.407 -38.903 200.476C-42.0802 198.384 -42.9789 195.084 -44.2022 192.043C-45.269 189.39 -45.4429 186.396 -46.1329 183.575C-46.3068 182.87 -47.2519 182.304 -47.3041 181.633C-47.5244 178.997 -47.536 176.344 -47.623 173.697C-47.6288 173.489 -47.5882 173.263 -47.6519 173.073C-48.2317 171.252 -48.8173 169.431 -49.4319 167.616C-49.6406 167.003 -49.9363 166.42 -50.1914 165.818C-50.4407 165.807 -50.6958 165.801 -50.9452 165.79C-51.4032 167.316 -51.8786 168.842 -52.3076 170.373C-52.5859 171.362 -51.1538 173.194 -53.6643 173.067C-53.5831 173.905 -53.4962 174.743 -53.415 175.581L-53.473 175.523V175.518Z" fill="black" fill-opacity="0.12"/>
<path d="M22.9255 71.6421C18.8554 77.4743 16.4783 83.8325 17.8466 91.0866C19.2265 98.4101 20.3455 105.826 24.2358 112.392C24.8388 113.415 25.7027 114.352 26.6303 115.097C27.2101 115.56 28.1378 115.589 28.9089 115.814C29.0597 114.924 29.5467 113.936 29.3032 113.173C28.5842 110.924 27.5812 108.768 26.6767 106.583C23.2154 98.1847 21.8761 89.3179 21.2673 80.3702C21.076 77.509 22.3341 74.5495 22.9255 71.6363V71.6421Z" fill="black" fill-opacity="0.12"/>
<path d="M80.3998 42.9667C82.9856 42.5043 84.1394 41.2789 84.6206 38.9841C86.3715 30.6954 91.062 23.9094 96.3671 17.5628C98.9123 14.5167 102.049 11.9503 104.867 9.12376C105.435 8.55731 105.789 7.77698 106.426 6.80591C102.832 6.56315 100.257 8.19893 98.2688 10.0833C91.2649 16.7189 84.6902 23.7592 81.7159 33.2849C80.7592 36.3542 79.5649 39.4119 80.394 42.9725L80.3998 42.9667Z" fill="black" fill-opacity="0.12"/>
<path d="M-80.491 144.339C-79.2212 143.507 -78.5429 143.108 -77.9168 142.64C-76.7282 141.756 -76.3919 140.889 -77.65 139.64C-81.2853 136.033 -82.6072 131.484 -82.526 126.513C-82.4507 121.872 -82.2651 117.23 -81.9579 112.6C-81.8535 110.994 -81.2505 109.416 -80.8737 107.826L-82.0506 107.248C-83.0131 108.439 -84.277 109.496 -84.8858 110.849C-87.8775 117.473 -87.8659 124.45 -86.8455 131.467C-86.5614 133.421 -86.1671 135.473 -85.2742 137.189C-83.9871 139.657 -82.1898 141.86 -80.4968 144.339H-80.491Z" fill="black" fill-opacity="0.12"/>
<path d="M-105.897 158.622C-105.434 159.021 -105.004 159.472 -104.494 159.807C-102.106 161.36 -100.565 163.329 -99.8733 165.714C-99.8038 164.923 -99.7342 164.125 -99.6588 163.321C-99.5139 163.252 -99.3631 163.125 -99.2066 163.113C-98.163 163.05 -97.1193 163.015 -96.0757 162.969C-96.2613 161.905 -96.1279 160.599 -96.7077 159.824C-97.931 158.194 -99.5197 156.836 -100.975 155.379C-102.129 154.229 -103.607 153.281 -104.419 151.929C-108.014 145.952 -111.411 139.854 -114.913 133.819C-115.278 133.189 -115.852 132.687 -116.461 131.958C-117.87 137.16 -112.037 151.461 -105.805 158.703L-105.886 158.616L-105.897 158.622Z" fill="black" fill-opacity="0.12"/>
<path d="M-137.438 143.565C-137.774 146.675 -137.936 149.813 -138.487 152.888C-139.357 157.738 -137.391 162.119 -136.585 166.697C-136.446 167.477 -136.029 168.31 -136.191 169.015C-137.009 172.622 -134.585 174.304 -132.121 175.859C-131.373 176.327 -130.214 176.148 -129.245 176.263C-129.135 175.205 -128.66 174.026 -128.973 173.113C-130.069 169.905 -131.576 166.83 -132.631 163.61C-133.217 161.824 -133.136 159.83 -133.513 157.963C-133.716 156.952 -134.463 156.038 -134.591 155.033C-134.892 152.593 -134.916 150.12 -135.177 147.675C-135.327 146.253 -135.733 144.86 -136.023 143.455C-136.498 143.495 -136.968 143.53 -137.443 143.571L-137.438 143.565Z" fill="black" fill-opacity="0.12"/>
<path d="M130.174 66.9139C131.114 58.9546 134.256 51.9664 139.66 46.0417C141.463 44.0649 143.765 42.5043 145.411 40.4234C146.42 39.146 146.623 37.227 147.191 35.597C146.849 35.3657 146.507 35.1288 146.171 34.8976C143.388 37.1749 140.384 39.2385 137.862 41.776C132.378 47.2845 128.789 53.9663 127.171 61.5557C126.829 63.1568 127.71 65.0527 128.221 66.7579C128.284 66.966 129.531 66.8215 130.232 66.8388L130.18 66.9139H130.174Z" fill="black" fill-opacity="0.12"/>
<path d="M181.335 145.969C181.944 147.923 182.587 149.865 183.15 151.83C185.411 159.726 190.426 165.408 197.285 169.72C199.372 171.032 200.705 170.084 201.743 168.587C202.793 167.067 201.743 165.98 200.392 165.177C193.899 161.322 189.405 155.564 185.295 149.432C184.39 148.079 183.236 146.888 182.199 145.623C181.909 145.738 181.619 145.854 181.329 145.964L181.335 145.969Z" fill="black" fill-opacity="0.12"/>
<path d="M76.863 119.808C75.9818 124.161 76.9326 127.548 78.1386 130.796C79.8663 135.438 81.4144 140.212 85.067 143.877C86.3136 145.125 87.8384 145.594 88.9864 144.391C89.7459 143.588 90.2735 141.623 89.8097 140.761C86.5629 134.686 83.061 128.75 79.5649 122.814C79.0141 121.878 78.098 121.161 76.863 119.814V119.808Z" fill="black" fill-opacity="0.12"/>
<path d="M-39.1 122.889C-39.8015 127.062 -39.0885 130.947 -37.3375 134.421C-35.1923 138.686 -32.5775 142.744 -29.8873 146.703C-29.0176 147.981 -27.3304 148.784 -25.8809 149.553C-25.4403 149.784 -24.2169 149.351 -23.9386 148.883C-23.527 148.189 -23.2603 146.969 -23.614 146.362C-24.6924 144.484 -26.165 142.837 -27.3536 141.01C-30.6874 135.895 -33.9573 130.739 -37.2621 125.6C-37.8535 124.681 -38.4912 123.797 -39.1058 122.895L-39.1 122.889Z" fill="black" fill-opacity="0.12"/>
<path d="M-93.9073 165.327C-93.5595 163.923 -93.2058 162.512 -92.7884 160.842C-91.3679 161.339 -90.0692 161.79 -88.782 162.241C-86.231 159.865 -86.5035 159.929 -88.782 157.472C-91.71 154.31 -94.0581 150.622 -96.8411 147.316C-98.2789 145.611 -100.204 144.322 -101.758 142.704C-102.807 141.617 -103.596 140.282 -104.5 139.056C-104.773 139.207 -105.039 139.357 -105.312 139.507C-104.355 142.756 -104.315 146.929 -102.204 149.016C-99.6588 151.53 -98.3833 154.669 -96.1221 157.171C-94.1335 159.374 -93.6522 161.709 -94.7712 164.431C-94.8466 164.616 -94.6668 164.905 -94.6088 165.148C-94.3769 165.206 -94.145 165.264 -93.9131 165.321L-93.9073 165.327Z" fill="black" fill-opacity="0.12"/>
<path d="M21.4528 18.0483C18.8612 22.6031 17.0407 27.4065 16.5305 32.597C16.1362 36.62 15.9739 40.6777 15.9796 44.7181C15.9796 46.4232 16.4957 48.2035 17.1508 49.7931C17.4697 50.5618 18.6409 50.9838 19.4294 51.5676C19.812 50.7063 20.5136 49.8451 20.5078 48.9838C20.4846 46.7065 20.0729 44.4348 19.9686 42.1575C19.6729 35.6663 20.6469 29.3255 22.769 23.1985C23.4821 21.135 23.5169 19.5107 21.4586 18.0483H21.4528Z" fill="black" fill-opacity="0.12"/>
<path d="M21.9805 123.149C19.9396 127.242 17.5799 131.213 15.9449 135.461C13.9736 140.594 13.5677 146.05 14.3273 151.541C14.4084 152.148 14.4258 152.825 14.7215 153.322C15.1796 154.091 15.8463 154.732 16.4319 155.432C16.9653 154.721 17.7654 154.079 17.9625 153.287C18.322 151.859 18.4901 150.333 18.4322 148.859C18.1771 142.062 19.8642 135.663 22.1428 129.346C22.7979 127.536 23.0357 125.583 23.4647 123.693C22.9719 123.513 22.4733 123.328 21.9805 123.149Z" fill="black" fill-opacity="0.12"/>
<path d="M91.81 42.8453C94.1001 37.3426 95.967 31.8398 98.634 26.7533C100.889 22.4471 104.101 18.6495 106.792 14.5629C107.168 13.9907 106.971 13.0485 107.041 12.2797C106.432 12.4531 105.615 12.4358 105.244 12.8289C98.866 19.5339 93.1319 26.6666 90.6272 35.8224C90.2561 37.1807 89.8387 38.5217 89.5198 39.8916C88.8704 42.6545 89.1835 42.9725 91.81 42.8453Z" fill="black" fill-opacity="0.12"/>
<path d="M12.4082 46.0359C12.4082 39.8627 11.4631 33.8224 12.6749 28.2446C13.8693 22.7476 17.2436 17.7189 19.2033 11.9907C17.0928 14.1005 14.6519 15.979 12.9416 18.372C7.72929 25.6608 7.91482 34.0363 8.81349 42.4176C9.05121 44.6545 9.88031 45.2672 12.4082 46.0359Z" fill="black" fill-opacity="0.12"/>
<path d="M-71.4116 104.485C-72.2986 106.075 -73.6728 107.577 -73.9975 109.277C-75.4933 117.074 -75.8586 124.958 -74.6468 132.831C-74.4439 134.149 -73.1394 135.305 -72.3451 136.536C-71.7711 135.108 -70.6869 133.675 -70.6984 132.247C-70.768 124.016 -71.1217 115.791 -71.3189 107.56C-71.3421 106.653 -70.9768 105.734 -70.797 104.815C-71 104.705 -71.2086 104.595 -71.4116 104.485Z" fill="black" fill-opacity="0.12"/>
<path d="M5.21881 125.773C1.50818 127.438 -0.364531 130.912 0.186267 133.64C0.406586 134.733 0.400803 135.889 0.38341 137.016C0.313835 141.941 0.186281 146.871 0.128302 151.796C0.116706 152.576 0.221045 153.42 0.539928 154.114C0.795034 154.663 1.46181 155.027 1.94304 155.472C2.36048 154.969 2.99823 154.524 3.15477 153.952C3.42727 152.952 3.47947 151.871 3.50266 150.819C3.63602 144.756 3.63601 138.686 3.89692 132.629C3.98388 130.531 4.68541 128.455 5.21881 125.779V125.773Z" fill="black" fill-opacity="0.12"/>
<path d="M-78.1488 151.339C-78.4966 152.738 -78.8387 154.131 -79.3315 156.114C-80.2012 154.738 -80.7752 153.726 -81.4477 152.79C-83.1929 150.368 -84.9148 147.917 -86.8165 145.617C-87.1644 145.195 -88.4109 145.183 -89.0545 145.449C-89.4082 145.594 -89.6807 146.831 -89.4546 147.345C-88.6313 149.229 -87.6398 151.05 -86.6078 152.836C-85.0946 155.455 -83.419 157.986 -81.9811 160.645C-81.4477 161.634 -81.4013 162.876 -81.123 164.05C-80.1779 163.813 -78.9547 163.639 -77.8589 163.171C-77.3429 162.952 -76.6413 161.836 -76.7631 161.668C-79.1576 158.431 -77.4066 154.773 -78.143 151.345L-78.1488 151.339Z" fill="black" fill-opacity="0.12"/>
<path d="M130.227 66.8446C130.638 68.4688 131.044 70.0988 131.456 71.723C131.746 71.7057 132.036 71.6826 132.325 71.6652C133.804 63.8909 138.344 58.0009 143.788 52.6658C144.281 52.1861 144.75 51.6196 145.342 51.3132C147.498 50.2092 147.417 48.585 146.548 46.4001C138.981 51.7583 133.375 58.3708 130.169 66.9197L130.221 66.8504L130.227 66.8446Z" fill="black" fill-opacity="0.12"/>
<path d="M104.438 45.614C105.4 36.2212 108.021 27.4643 113.732 19.7593C113.43 19.5454 113.135 19.3373 112.833 19.1235C112.12 19.557 111.25 19.846 110.723 20.4413C104.757 27.0943 102.084 35.1288 101.127 43.8106C100.843 46.3828 102.872 45.4695 104.443 45.614H104.438Z" fill="black" fill-opacity="0.12"/>
<path d="M117.147 24.4701C115.784 29.8457 114.451 34.9669 113.21 40.1171C112.862 41.5621 112.734 43.0649 112.584 44.5447C112.253 47.7527 112.276 47.7584 115.836 48.1457C116.52 44.1227 117.123 40.0708 117.918 36.0594C118.428 33.4872 119.002 30.8861 119.941 28.4527C120.782 26.2678 119.953 25.3834 117.147 24.4759V24.4701Z" fill="black" fill-opacity="0.12"/>
<path d="M213.432 168.564C214.058 168.021 215.305 167.437 215.635 166.518C215.925 165.697 215.519 164.188 214.864 163.558C212.168 160.98 209.298 158.587 206.411 156.218C205.767 155.692 204.839 155.443 203.999 155.241C202.746 154.94 201.969 155.57 202.427 156.796C204.132 161.402 207.008 165.165 211.089 167.951C211.559 168.275 212.261 168.264 213.432 168.553V168.564Z" fill="black" fill-opacity="0.12"/>
<path d="M103.951 139.623C102.785 134.022 100.524 129.912 96.2801 127.091C95.7757 126.756 94.8306 126.56 94.3726 126.814C93.961 127.039 93.6015 128.097 93.787 128.565C95.3988 132.617 97.0106 136.681 98.9413 140.588C99.411 141.536 101.307 142.617 102.119 142.345C103.064 142.033 103.533 140.305 103.951 139.629V139.623Z" fill="black" fill-opacity="0.12"/>
<path d="M148.699 58.1974C145.788 60.6309 143.637 63.4805 142.28 66.9139C141.167 69.7289 139.909 72.5265 139.213 75.4513C138.865 76.9079 139.631 78.6246 139.897 80.2199C140.761 79.0234 141.672 77.8558 142.466 76.6131C143.469 75.0466 144.408 73.4398 145.318 71.8155C145.655 71.2202 146.13 70.4976 146.043 69.9023C145.672 67.3417 147.093 65.6018 148.571 63.8562C150.05 62.1164 150.264 60.3361 148.699 58.1917V58.1974Z" fill="black" fill-opacity="0.12"/>
<path d="M29.9989 26.1811C27.6855 34.6374 27.6102 43.1805 28.9263 51.8219C32.4282 51.4462 32.3354 51.2786 32.2137 48.1515C31.9702 42.0187 32.0571 35.8802 31.9006 29.7416C31.8716 28.5047 31.373 27.2793 31.0889 26.0481C30.7294 26.0944 30.3642 26.1348 30.0047 26.1811H29.9989Z" fill="black" fill-opacity="0.12"/>
<path d="M242.862 196.344C243.546 197.049 244.526 197.852 245.256 198.841C246.555 200.58 247.436 202.748 249.019 204.129C250.138 205.106 252.121 205.228 253.75 205.378C254.081 205.407 255.136 203.488 254.881 203.095C252.075 198.783 249.071 194.592 246.051 190.274C243.43 191.592 245.94 195.945 242.856 196.344H242.862Z" fill="black" fill-opacity="0.12"/>
<path d="M217.693 109.444C219.166 108.288 220.441 106.867 222.03 106.132C226.175 104.213 230.466 102.612 234.675 100.82C235.197 100.595 235.556 99.9881 235.991 99.5604C235.516 99.1615 235.098 98.5546 234.559 98.4159C233.823 98.2251 232.965 98.2656 232.205 98.4217C226.697 99.543 221.636 101.52 217.363 105.387C215.502 107.075 216.035 108.04 217.693 109.444Z" fill="black" fill-opacity="0.12"/>
<path d="M231.167 94.0172C225.833 89.5086 217.705 88.8381 212.446 91.9594C212 92.2253 211.472 92.3583 210.991 92.5779C208.104 93.89 208.069 94.0461 210.168 96.9824C216.319 92.549 223.369 93.0461 231.167 94.0172Z" fill="black" fill-opacity="0.12"/>
<path d="M152.589 68.8272C147.736 72.3762 142.495 85.2891 144.965 88.7283C145.782 87.2197 146.519 85.9192 147.209 84.6013C149.232 80.7286 151.053 76.7344 153.331 73.0178C154.531 71.0641 153.992 70.0237 152.595 68.8272H152.589Z" fill="black" fill-opacity="0.12"/>
<path d="M-152.616 163.073C-151.509 165.749 -150.407 168.431 -149.271 171.188C-146.511 170.662 -147.051 168.905 -147.549 167.368C-148.164 165.472 -149.057 163.662 -149.723 161.778C-150.263 160.258 -150.587 158.663 -151.132 157.142C-151.439 156.287 -151.99 155.512 -152.425 154.703L-153.19 154.934C-153.289 156.252 -153.388 157.57 -153.486 158.888C-153.619 158.905 -153.753 158.917 -153.88 158.934C-154.025 158.379 -154.165 157.83 -154.309 157.275C-154.414 157.275 -154.524 157.275 -154.628 157.275V165.304C-154.425 165.333 -154.217 165.362 -154.014 165.391C-153.788 164.662 -153.556 163.928 -153.33 163.2C-153.092 163.16 -152.848 163.113 -152.611 163.073H-152.616Z" fill="black" fill-opacity="0.12"/>
<path d="M123.066 50.8219C125.664 45.377 127.832 31.9728 125.971 30.5566C125.136 33.1519 124.255 35.597 123.571 38.0998C122.666 41.406 121.866 44.7412 121.13 48.0879C120.683 50.1283 120.828 50.2208 123.066 50.8219Z" fill="black" fill-opacity="0.12"/>
<path d="M225.706 117.462C227.631 119.427 229.225 119.352 231.167 117.826C233.046 116.352 235.168 115.161 237.278 114.028C238.241 113.508 239.273 113.421 238.768 111.878C238.258 110.311 237.267 110.45 236.084 110.797C232.049 111.97 228.773 114.306 225.706 117.467V117.462Z" fill="black" fill-opacity="0.12"/>
<path d="M36.7824 29.9671C34.6604 34.9554 35.4431 42.88 37.7043 46.14C39.403 45.4406 39.9654 44.3308 39.606 42.4349C38.9856 39.1691 38.6899 35.8455 38.1043 32.5681C37.942 31.6549 37.2404 30.8341 36.7824 29.9671Z" fill="black" fill-opacity="0.12"/>
<path d="M153.076 35.0074C154.839 34.5565 156.445 34.256 157.958 33.7011C158.52 33.493 159.065 32.73 159.21 32.1231C159.28 31.8398 158.439 31.152 157.894 30.9613C157.256 30.7416 156.503 30.8283 155.801 30.8514C152.311 30.9728 151.951 31.5335 153.07 35.0074H153.076Z" fill="black" fill-opacity="0.12"/>
<path d="M156.05 56.0761C157.952 55.6715 160.312 52.0762 160.103 49.8971C155.54 51.4231 154.769 52.5964 156.05 56.0761Z" fill="black" fill-opacity="0.12"/>
<path d="M161.784 58.4518C157.755 60.2321 157.32 61.1684 159.042 64.1048C162.097 62.6828 162.956 61.0008 161.784 58.4518Z" fill="black" fill-opacity="0.12"/>
<path d="M153.888 45.5793C155.627 44.9146 157.366 44.2557 159.286 43.5216C157.819 40.8454 155.888 42.5563 154.276 43.1285C153.708 43.3308 153.464 44.4406 153.07 45.1342C153.343 45.2845 153.615 45.429 153.888 45.5793Z" fill="black" fill-opacity="0.12"/>
<path d="M-146.123 179.945C-145.398 176.818 -142.702 174.044 -144.511 170.454C-145.05 173.616 -145.584 176.778 -146.123 179.945Z" fill="black" fill-opacity="0.12"/>
<path d="M-53.4092 175.575C-53.9137 177.101 -54.4992 178.61 -54.9051 180.165C-55.3225 181.743 -55.5661 183.367 -55.3747 185.095C-54.737 181.905 -54.0992 178.714 -53.4672 175.518L-53.4092 175.575Z" fill="black" fill-opacity="0.12"/>
<path d="M378.358 153.189C375.702 154.356 374.317 156.79 373.088 159.206C369.829 165.599 369.649 172.142 372.56 178.743C373.018 179.778 373.412 180.882 373.586 181.991C374.027 184.841 377.03 187.564 379.86 187.529C382.109 187.506 383.077 184.916 381.744 182.448C380.747 180.616 379.72 178.795 378.717 176.968C375.314 170.772 375.163 164.472 377.998 158.015C378.613 156.611 378.828 155.027 379.222 153.53C378.938 153.414 378.648 153.304 378.364 153.189H378.358Z" fill="black" fill-opacity="0.12"/>
<path d="M386.475 166.194C383.025 169.431 381.819 172.576 382.741 176.587C383.617 180.396 383.901 184.396 386.162 187.725C387.101 189.107 388.388 190.396 389.803 191.263C390.545 191.714 392.261 191.534 392.887 190.951C393.508 190.367 393.74 188.754 393.392 187.881C392.673 186.043 391.119 184.5 390.528 182.645C389.177 178.419 388.179 174.078 387.078 169.778C386.829 168.795 386.73 167.772 386.469 166.194H386.475Z" fill="black" fill-opacity="0.12"/>
<path d="M407.568 180.645C405.985 185.754 408.884 193.026 413.087 195.656C415.853 193.858 416.096 191.511 414.073 188.702C412.855 187.014 412.113 184.98 410.878 183.309C410.107 182.269 408.808 181.616 407.568 180.645Z" fill="black" fill-opacity="0.12"/>
<path d="M381.413 195.638C381.123 197.505 380.752 199.887 380.341 202.534C382.022 199.257 383.617 196.147 384.944 193.558C384.173 194.014 382.898 194.76 381.413 195.638Z" fill="black" fill-opacity="0.12"/>
<path d="M400.459 199.985C400.117 201.898 397.746 203.603 399.787 205.973C402.46 204.494 400.001 201.858 401.016 199.991C401.033 199.962 400.923 199.829 400.854 199.812C400.784 199.8 400.703 199.875 400.459 199.985Z" fill="black" fill-opacity="0.12"/>
</svg>
