<svg width="26" height="26" viewBox="0 0 26 26" fill="none" xmlns="http://www.w3.org/2000/svg">
<path d="M2.66675 9.74984C2.66675 8.71411 2.66781 7.98791 2.74164 7.43913C2.81352 6.90481 2.94603 6.614 3.15513 6.40489C3.36424 6.19579 3.65506 6.06327 4.18937 5.99139C4.73816 5.91757 5.46435 5.9165 6.50008 5.9165H19.5001C20.5358 5.9165 21.262 5.91757 21.8108 5.99139C22.3451 6.06327 22.6359 6.19579 22.845 6.40489C23.0541 6.614 23.1866 6.90481 23.2585 7.43913C23.3323 7.98791 23.3334 8.71411 23.3334 9.74984C23.3334 10.019 23.3324 10.171 23.3181 10.2777C23.3162 10.2916 23.3143 10.303 23.3125 10.3122C23.3032 10.314 23.2917 10.3159 23.2776 10.3178C23.1707 10.3321 23.0187 10.3332 22.7501 10.3332H3.25008C2.9809 10.3332 2.82895 10.3321 2.72225 10.3178C2.70833 10.316 2.69693 10.3141 2.68771 10.3123C2.68591 10.303 2.68399 10.2914 2.6821 10.2773C2.6678 10.1704 2.66675 10.0184 2.66675 9.74984ZM23.3444 10.3042C23.3457 10.3036 23.3465 10.3033 23.3465 10.3033C23.3465 10.3033 23.3459 10.3037 23.3444 10.3042ZM23.3037 10.3461C23.3037 10.3461 23.3039 10.3453 23.3046 10.344C23.304 10.3455 23.3037 10.3462 23.3037 10.3461ZM2.65377 10.3034C2.65382 10.3034 2.65455 10.3037 2.65582 10.3043C2.65436 10.3038 2.65373 10.3035 2.65377 10.3034ZM2.69573 10.3442C2.69634 10.3455 2.69661 10.3462 2.69659 10.3463C2.69657 10.3463 2.69626 10.3457 2.69573 10.3442Z" fill="black" stroke="black"/>
<path d="M7.38924 14.9701L7.38923 14.9701L7.38682 14.9725C7.20018 15.1604 7.13476 15.3867 7.10761 15.5894C7.08333 15.7707 7.08337 15.9912 7.08341 16.2222C7.08341 16.2314 7.08341 16.2407 7.08341 16.25C7.08341 16.2593 7.08341 16.2685 7.08341 16.2777C7.08337 16.5083 7.08333 16.7288 7.1076 16.9101C7.1347 17.1126 7.19998 17.3394 7.38682 17.5275L7.38681 17.5275L7.38924 17.5299C7.57716 17.7166 7.80345 17.782 8.00616 17.8091C8.1874 17.8334 8.40792 17.8334 8.6389 17.8333C8.64816 17.8333 8.65745 17.8333 8.66675 17.8333H10.8334L10.8611 17.8333C11.0917 17.8334 11.3122 17.8334 11.4935 17.8091C11.696 17.7821 11.9228 17.7168 12.1109 17.5299L12.1133 17.5275C12.3 17.3396 12.3654 17.1133 12.3926 16.9106C12.4168 16.7293 12.4168 16.5088 12.4168 16.2778C12.4167 16.2686 12.4167 16.2593 12.4167 16.25C12.4167 16.2407 12.4167 16.2314 12.4168 16.2222C12.4168 15.9912 12.4168 15.7707 12.3926 15.5894C12.3654 15.3867 12.3 15.1604 12.1133 14.9725L12.1133 14.9725L12.1109 14.9701C11.923 14.7834 11.6967 14.718 11.494 14.6909C11.3128 14.6666 11.0922 14.6666 10.8613 14.6667L10.8334 14.6667H8.66675C8.65749 14.6667 8.64825 14.6667 8.63902 14.6667C8.40846 14.6666 8.18797 14.6666 8.00663 14.6909C7.80416 14.7179 7.57736 14.7832 7.38924 14.9701ZM7.38924 19.3034L7.38923 19.3034L7.38682 19.3058C7.19998 19.4939 7.1347 19.7207 7.1076 19.9232C7.08333 20.1046 7.08337 20.325 7.08341 20.5556C7.08341 20.5648 7.08341 20.5741 7.08341 20.5833C7.08341 20.5926 7.08341 20.6018 7.08341 20.6111C7.08337 20.8416 7.08333 21.0621 7.1076 21.2435C7.1347 21.4459 7.19998 21.6727 7.38682 21.8608L7.38924 21.8633C7.57736 22.0501 7.80416 22.1154 8.00663 22.1425C8.18797 22.1667 8.40846 22.1667 8.63902 22.1667C8.64825 22.1667 8.65749 22.1667 8.66675 22.1667H10.8334C10.8427 22.1667 10.852 22.1667 10.8613 22.1667C11.0922 22.1667 11.3128 22.1667 11.494 22.1425C11.6967 22.1153 11.923 22.0499 12.1109 21.8633L12.1133 21.8608C12.3002 21.6727 12.3655 21.4459 12.3926 21.2435C12.4168 21.0621 12.4168 20.8416 12.4168 20.6111C12.4167 20.6018 12.4167 20.5926 12.4167 20.5833C12.4167 20.5741 12.4167 20.5648 12.4168 20.5556C12.4168 20.325 12.4168 20.1046 12.3926 19.9232C12.3655 19.7207 12.3002 19.4939 12.1133 19.3058L12.1133 19.3058L12.1109 19.3034C11.9228 19.1166 11.696 19.0513 11.4935 19.0242C11.3122 18.9999 11.0917 19 10.8611 19L10.8334 19H8.66675C8.65745 19 8.64816 19 8.6389 19C8.40792 19 8.1874 18.9999 8.00616 19.0242C7.80345 19.0513 7.57716 19.1168 7.38924 19.3034ZM13.8892 14.9701L13.8868 14.9725C13.7002 15.1604 13.6348 15.3867 13.6076 15.5894C13.5833 15.7707 13.5834 15.9912 13.5834 16.2222L13.5834 16.25L13.5834 16.2777C13.5834 16.5083 13.5833 16.7288 13.6076 16.9101C13.6347 17.1126 13.7 17.3394 13.8868 17.5275L13.8868 17.5275L13.8892 17.5299C14.0772 17.7166 14.3034 17.782 14.5062 17.8091C14.6874 17.8334 14.9079 17.8334 15.1389 17.8333L15.1667 17.8333H17.3334L17.3611 17.8333C17.5917 17.8334 17.8122 17.8334 17.9935 17.8091C18.196 17.7821 18.4228 17.7168 18.6109 17.5299L18.6133 17.5275C18.8 17.3396 18.8654 17.1133 18.8925 16.9106C18.9168 16.7293 18.9168 16.5088 18.9167 16.2778L18.9167 16.25L18.9167 16.2222C18.9168 15.9912 18.9168 15.7707 18.8925 15.5894C18.8654 15.3867 18.8 15.1604 18.6133 14.9725L18.6109 14.9701C18.423 14.7834 18.1967 14.718 17.994 14.6909C17.8128 14.6666 17.5922 14.6666 17.3613 14.6667L17.3334 14.6667H15.1667L15.139 14.6667C14.9085 14.6666 14.688 14.6666 14.5066 14.6909C14.3042 14.7179 14.0774 14.7832 13.8892 14.9701ZM13.8892 19.3034L13.8868 19.3058C13.7 19.4939 13.6347 19.7207 13.6076 19.9232C13.5833 20.1046 13.5834 20.325 13.5834 20.5556L13.5834 20.5833L13.5834 20.6111C13.5834 20.8416 13.5833 21.0621 13.6076 21.2435C13.6347 21.4459 13.7 21.6727 13.8868 21.8608L13.8892 21.8633C14.0772 22.0499 14.3034 22.1153 14.5062 22.1425C14.6874 22.1667 14.9079 22.1667 15.1389 22.1667L15.1667 22.1667H17.3334L17.3613 22.1667C17.5922 22.1667 17.8128 22.1667 17.994 22.1425C18.1967 22.1153 18.423 22.0499 18.6109 21.8633L18.6133 21.8608C18.8002 21.6727 18.8655 21.4459 18.8926 21.2435C18.9168 21.0621 18.9168 20.8416 18.9167 20.6111L18.9167 20.5833L18.9167 20.5556C18.9168 20.325 18.9168 20.1045 18.8926 19.9232C18.8655 19.7208 18.8002 19.494 18.6133 19.3058L18.6109 19.3034C18.4228 19.1166 18.196 19.0513 17.9935 19.0242C17.8122 18.9999 17.5917 19 17.3611 19L17.3334 19H15.1667L15.1389 19C14.9079 19 14.6874 18.9999 14.5062 19.0242C14.3034 19.0513 14.0772 19.1168 13.8892 19.3034ZM3.15513 22.8449C2.94603 22.6358 2.81352 22.345 2.74164 21.8107C2.66781 21.2619 2.66675 20.5357 2.66675 19.5V14.0833C2.66675 13.8147 2.6678 13.6627 2.6821 13.5559C2.68399 13.5417 2.68591 13.5302 2.68771 13.5209C2.69693 13.5191 2.70833 13.5172 2.72225 13.5153C2.82895 13.5011 2.9809 13.5 3.25008 13.5H22.7501C23.0187 13.5 23.1707 13.5011 23.2776 13.5154C23.2917 13.5172 23.3032 13.5192 23.3125 13.521C23.3143 13.5302 23.3162 13.5416 23.3181 13.5555C23.3324 13.6622 23.3334 13.8141 23.3334 14.0833V19.5C23.3334 20.5357 23.3323 21.2619 23.2585 21.8107C23.1866 22.345 23.0541 22.6358 22.845 22.8449C22.6359 23.0541 22.3451 23.1866 21.8108 23.2584C21.262 23.3323 20.5358 23.3333 19.5001 23.3333H6.50008C5.46435 23.3333 4.73816 23.3323 4.18937 23.2584C3.65506 23.1866 3.36424 23.0541 3.15513 22.8449ZM2.69659 13.4869C2.69661 13.487 2.69635 13.4877 2.69575 13.4889C2.69627 13.4875 2.69657 13.4869 2.69659 13.4869ZM2.6558 13.5289C2.65454 13.5295 2.65382 13.5298 2.65377 13.5297C2.65373 13.5297 2.65436 13.5294 2.6558 13.5289ZM23.3465 13.5298C23.3465 13.5299 23.3457 13.5296 23.3444 13.529C23.3459 13.5295 23.3465 13.5298 23.3465 13.5298ZM23.3046 13.4891C23.3039 13.4878 23.3037 13.4871 23.3037 13.487C23.3037 13.487 23.304 13.4876 23.3046 13.4891Z" fill="black" stroke="black"/>
<path d="M7.5835 3.25V6.5V3.25ZM18.4168 3.25V6.5V3.25Z" fill="black"/>
<path d="M7.5835 3.25V6.5M18.4168 3.25V6.5" stroke="black" stroke-width="2" stroke-linecap="round"/>
</svg>
