<svg width="51" height="51" viewBox="0 0 51 51" fill="none" xmlns="http://www.w3.org/2000/svg">
<path d="M4.75 19.125C4.75 17.107 4.75106 15.6443 4.90119 14.5284C5.04937 13.4269 5.33449 12.7381 5.8488 12.2238C6.36312 11.7095 7.05185 11.4244 8.15335 11.2762C9.26933 11.1261 10.732 11.125 12.75 11.125H38.25C40.268 11.125 41.7307 11.1261 42.8466 11.2762C43.9481 11.4244 44.6369 11.7095 45.1512 12.2238C45.6655 12.7381 45.9506 13.4269 46.0988 14.5284C46.2489 15.6443 46.25 17.107 46.25 19.125C46.25 19.6395 46.2489 19.9756 46.2156 20.2242C46.1845 20.4567 46.1334 20.5382 46.0862 20.5862C46.0383 20.6332 45.9565 20.6844 45.7234 20.7156C45.4745 20.749 45.1384 20.75 44.625 20.75H6.375C5.8605 20.75 5.52444 20.7489 5.27582 20.7156C5.04336 20.6845 4.96186 20.6334 4.91381 20.5862C4.86677 20.5383 4.81556 20.4565 4.78436 20.2234C4.75105 19.9745 4.75 19.6384 4.75 19.125Z" fill="white" stroke="white"/>
<path d="M14.8329 29.7055L14.8305 29.7079C14.5678 29.9724 14.4644 30.2984 14.4182 30.6431C14.375 30.966 14.375 31.3697 14.375 31.8418L14.375 31.875L14.375 31.908C14.375 32.3792 14.375 32.7829 14.4182 33.1061C14.4643 33.4506 14.5676 33.7774 14.8305 34.0421L14.8329 34.0445C15.0974 34.3072 15.4234 34.4106 15.7681 34.4568C16.091 34.5 16.4947 34.5 16.9668 34.5L17 34.5H21.25L21.283 34.5C21.7542 34.5 22.1579 34.5 22.4811 34.4568C22.8256 34.4107 23.1524 34.3074 23.4171 34.0445L23.4195 34.0421C23.6822 33.7776 23.7856 33.4516 23.8318 33.1069C23.875 32.784 23.875 32.3803 23.875 31.9081V31.875V31.8419C23.875 31.3697 23.875 30.966 23.8318 30.6431C23.7856 30.2984 23.6822 29.9724 23.4195 29.7079L23.4171 29.7055C23.1526 29.4428 22.8266 29.3394 22.4819 29.2932C22.159 29.25 21.7553 29.25 21.2831 29.25L21.25 29.25H17L16.967 29.25C16.4958 29.25 16.0921 29.25 15.7689 29.2932C15.4244 29.3393 15.0976 29.4426 14.8329 29.7055ZM14.8329 38.2055L14.8305 38.2079C14.5676 38.4726 14.4643 38.7994 14.4182 39.1439C14.375 39.4671 14.375 39.8708 14.375 40.342L14.375 40.375L14.375 40.408C14.375 40.8792 14.375 41.2829 14.4182 41.6061C14.4643 41.9506 14.5676 42.2774 14.8305 42.5421L14.8329 42.5445C15.0976 42.8074 15.4244 42.9107 15.7689 42.9568C16.0921 43 16.4958 43 16.967 43H17H21.25H21.2831C21.7553 43 22.159 43 22.4819 42.9568C22.8266 42.9106 23.1526 42.8072 23.4171 42.5445L23.4195 42.5421C23.6824 42.2774 23.7857 41.9506 23.8318 41.6061C23.875 41.2829 23.875 40.8792 23.875 40.408V40.375V40.342C23.875 39.8708 23.875 39.4671 23.8318 39.1439C23.7857 38.7994 23.6824 38.4726 23.4195 38.2079L23.4171 38.2055C23.1524 37.9426 22.8256 37.8393 22.4811 37.7932C22.1579 37.75 21.7542 37.75 21.283 37.75L21.25 37.75H17L16.9668 37.75C16.4947 37.75 16.091 37.75 15.7681 37.7932C15.4234 37.8394 15.0974 37.9428 14.8329 38.2055ZM27.5829 29.7055L27.5805 29.7079C27.3178 29.9724 27.2144 30.2984 27.1682 30.6431C27.125 30.966 27.125 31.3697 27.125 31.8419V31.875V31.908C27.125 32.3792 27.125 32.7829 27.1682 33.1061C27.2143 33.4506 27.3176 33.7774 27.5805 34.0421L27.5829 34.0445C27.8474 34.3072 28.1734 34.4106 28.5181 34.4568C28.841 34.5 29.2447 34.5 29.7168 34.5L29.75 34.5H34L34.033 34.5C34.5042 34.5 34.9079 34.5 35.2311 34.4568C35.5756 34.4107 35.9024 34.3074 36.1671 34.0445L36.1695 34.0421C36.4322 33.7776 36.5356 33.4516 36.5818 33.1069C36.625 32.784 36.625 32.3803 36.625 31.9081V31.875V31.8419C36.625 31.3697 36.625 30.966 36.5818 30.6431C36.5356 30.2984 36.4322 29.9724 36.1695 29.7079L36.1671 29.7055C35.9026 29.4428 35.5766 29.3394 35.2319 29.2932C34.909 29.25 34.5053 29.25 34.0331 29.25L34 29.25H29.75L29.717 29.25C29.2458 29.25 28.8421 29.25 28.5189 29.2932C28.1744 29.3393 27.8476 29.4426 27.5829 29.7055ZM27.5829 38.2055L27.5805 38.2079C27.3176 38.4726 27.2143 38.7994 27.1682 39.1439C27.125 39.4671 27.125 39.8708 27.125 40.342V40.375V40.408C27.125 40.8792 27.125 41.2829 27.1682 41.6061C27.2143 41.9506 27.3176 42.2774 27.5805 42.5421L27.5829 42.5445C27.8474 42.8072 28.1734 42.9106 28.5181 42.9568C28.841 43 29.2447 43 29.7169 43H29.75H34H34.0331C34.5053 43 34.909 43 35.2319 42.9568C35.5766 42.9106 35.9026 42.8072 36.1671 42.5445L36.1695 42.5421C36.4324 42.2774 36.5357 41.9506 36.5818 41.6061C36.625 41.2829 36.625 40.8792 36.625 40.408V40.375V40.342C36.625 39.8708 36.625 39.4671 36.5818 39.1439C36.5357 38.7994 36.4324 38.4726 36.1695 38.2079L36.1671 38.2055C35.9024 37.9426 35.5756 37.8393 35.2311 37.7932C34.9079 37.75 34.5042 37.75 34.033 37.75L34 37.75H29.75L29.7168 37.75C29.2447 37.75 28.841 37.75 28.5181 37.7932C28.1734 37.8394 27.8474 37.9428 27.5829 38.2055ZM5.8488 45.1512C5.33449 44.6369 5.04937 43.9481 4.90119 42.8466C4.75106 41.7307 4.75 40.268 4.75 38.25V27.625C4.75 27.1116 4.75105 26.7755 4.78436 26.5266C4.81556 26.2935 4.86678 26.2117 4.91381 26.1638C4.96186 26.1166 5.04337 26.0655 5.27582 26.0344C5.52444 26.0011 5.8605 26 6.375 26H44.625C45.1384 26 45.4745 26.0011 45.7234 26.0344C45.9565 26.0655 46.0383 26.1167 46.0862 26.1638C46.1334 26.2118 46.1845 26.2933 46.2156 26.5258C46.2489 26.7744 46.25 27.1105 46.25 27.625V38.25C46.25 40.268 46.2489 41.7307 46.0988 42.8466C45.9506 43.9481 45.6655 44.6369 45.1512 45.1512C44.6369 45.6655 43.9481 45.9506 42.8466 46.0988C41.7307 46.2489 40.268 46.25 38.25 46.25H12.75C10.732 46.25 9.26933 46.2489 8.15335 46.0988C7.05185 45.9506 6.36312 45.6655 5.8488 45.1512Z" fill="white" stroke="white"/>
<path d="M14.875 6.375V12.75V6.375ZM36.125 6.375V12.75V6.375Z" fill="white"/>
<path d="M14.875 6.375V12.75M36.125 6.375V12.75" stroke="white" stroke-width="2" stroke-linecap="round"/>
</svg>
