<svg width="107" height="87" viewBox="0 0 107 87" fill="none" xmlns="http://www.w3.org/2000/svg">
<path d="M37.402 51.5043C37.7606 51.4443 38.0146 51.4977 38.1549 51.9131C38.3354 52.4507 38.6762 52.8994 39.2554 53.086C39.8234 53.2681 39.5717 53.6613 39.4893 53.9946C39.017 55.8695 38.3042 57.6533 37.3552 59.3327C36.6246 60.6234 36.0142 61.9651 35.3704 63.2958C34.5373 65.0218 34.0383 66.839 34.0739 68.7494C34.1073 70.5688 33.3655 72.0127 32.2963 73.3967C29.9662 76.4134 27.6739 79.459 25.3906 82.5135C24.7268 83.4021 24.1476 84.3307 24.299 85.5591C24.4661 86.9387 25.2525 87.3785 26.5267 86.6565C28.1974 85.708 29.5563 84.3995 30.6389 82.8245C31.4141 81.696 32.1203 80.5209 33.1695 79.6057C33.5081 79.3102 33.8578 79.0414 34.2922 78.9103C37.6649 77.8929 40.9373 76.6222 44.0181 74.9028C45.2433 74.2186 46.4373 74.2542 47.7516 74.6474C50.3223 75.4138 52.9799 76.0758 55.6218 75.225C58.6871 74.2386 61.6676 72.9924 64.1871 70.8954C64.6638 70.4977 65.2363 70.3666 65.7865 70.1578C68.3149 69.1915 70.5091 67.832 71.5962 65.1951C71.8568 64.5642 72.2734 64.5731 72.7479 64.8797C76.1072 67.0634 79.7026 66.7968 83.3292 65.8393C85.7216 65.2062 88.0584 64.3621 90.5155 63.9778C90.9543 63.9089 91.411 63.7667 91.8343 63.8267C94.9841 64.2599 98.0293 63.398 101.117 63.0914C103.162 62.8892 104.757 61.6541 106.185 60.3035C107.218 59.326 107.232 57.4778 106.436 56.0561C105.151 53.7546 103.269 51.9664 101.331 50.2403C99.0006 48.1655 96.4098 46.4461 93.7612 44.7978C85.6971 39.7839 74.7906 36.1008 63.2247 35.8942C60.2598 35.8409 57.3215 36.2629 54.3498 36.8161C54.3498 36.5784 54.3543 36.3651 54.3498 36.1497C54.3231 34.9279 53.8085 34.4813 52.5856 34.7257C52.1601 34.8101 52.0064 34.7901 51.924 34.3347C50.652 27.4105 47.0788 21.6747 42.4454 16.5542C38.0168 11.6604 33.3923 6.9598 27.6739 3.50545C25.5777 2.23922 23.2966 1.35953 21.0779 0.346546C20.9108 0.268795 20.7215 0.233252 20.7081 0H19.817C19.7391 0.304339 19.4695 0.204373 19.2735 0.253245C17.4179 0.724193 15.9009 1.74606 15.0365 3.42325C13.2923 6.79764 12.4926 10.3342 13.6443 14.124C14.2658 16.1699 14.4529 18.2625 13.7579 20.344C13.1052 22.3034 12.9537 24.3382 12.9582 26.3664C12.9671 28.7989 13.7289 30.9603 15.883 32.3843C16.2929 32.6553 16.2706 32.813 15.9588 33.1285C13.5373 35.5676 13.1453 38.6332 13.2477 41.8588C13.3146 44.0003 13.8069 46.1484 13.4527 48.2766C12.8735 51.7687 10.8464 54.3478 7.88583 56.2005C6.42895 57.1113 5.12579 58.1798 3.95628 59.426C3.80926 59.5837 3.61545 59.6948 3.70456 59.9725C3.89613 60.5745 3.5954 60.9943 2.87365 61.0388C2.28332 61.0743 1.67295 61.0854 1.10045 60.9655C0.628193 60.8655 0.336372 61.0765 -5.91332e-07 61.2809V61.7252C1.71305 63.3646 3.75356 62.9448 5.72725 62.5294C7.72544 62.1095 9.63452 61.3609 11.2852 60.1302C13.6509 58.3664 16.3397 57.5866 19.2267 57.5622C23.8691 57.5244 27.9657 55.8073 31.8752 53.5769C33.4123 52.6995 35.0875 52.1374 36.5889 51.2111C37.0033 50.9556 37.3574 50.889 37.4265 51.5376L37.4087 51.511L37.402 51.5043ZM92.4179 49.7427C92.1261 48.9319 90.8341 48.5898 91.3019 47.3857C91.8209 47.5501 92.2909 47.7923 92.6117 48.1744C93.0661 48.7164 93.251 49.3162 92.4001 49.7272C92.3845 49.8271 92.3243 49.9493 92.3622 50.0204C93.1642 51.5821 92.8879 53.7347 90.6781 54.0679C90.6157 53.0238 91.264 52.0952 91.1482 51.0467C91.0479 50.1448 91.1259 49.3317 92.4179 49.7405V49.7427ZM89.9586 50.8357L89.9385 50.8623C90.5734 51.7309 90.1546 52.6417 90.0432 53.5392C89.972 54.1234 89.7447 54.6366 89.0653 54.3078C88.4861 54.0279 87.4659 54.0123 87.7755 52.8949C88.1899 51.3932 88.6888 49.9115 88.827 48.3454C88.8448 48.1477 88.847 47.7634 89.1121 47.8678C89.6579 48.0833 90.3462 48.4409 90.4464 48.943C90.5667 49.5383 90.8764 50.4114 89.9586 50.8357ZM39.1685 16.2166C38.4334 16.3521 38.9814 16.7408 39.0861 16.9097C39.5739 17.6916 40.1487 18.4225 40.6432 19.2022C42.8129 22.6321 45.9717 25.3778 47.5132 29.2609C47.8162 30.0251 47.589 30.636 47.7694 31.3047C47.2303 30.4494 46.3415 29.7808 46.5464 28.6412C46.5754 28.4834 46.4217 28.1524 46.2858 28.2435C45.1653 28.9855 45.1943 27.7326 44.722 27.3727C44.0671 26.8729 43.675 26.0332 42.5991 25.6178C43.3877 27.3971 44.673 28.4568 45.5485 29.8074C45.8046 30.2028 46.1299 30.6716 45.7712 30.9914C45.3168 31.3958 44.9916 30.8537 44.7331 30.5205C43.6216 29.0877 42.256 27.8925 41.0353 26.5597C40.817 26.322 40.5697 26.0621 40.1063 26.2798C40.4405 26.7618 40.6855 27.2661 41.0509 27.7304C42.3986 29.4431 43.9757 30.9648 45.1898 32.7864C46.0051 34.0104 46.2012 34.8657 45.7801 35.932C44.0203 33.9482 42.6525 31.5957 40.6165 29.7963C41.209 31.2469 41.9441 32.5842 42.8753 33.8016C43.8154 35.0323 44.7911 36.2363 45.5618 37.7624C44.4926 37.5003 43.7218 37.1893 43.2228 36.3251C42.98 35.9053 42.6659 35.4477 42.178 35.2078C42.0956 35.2833 42.0154 35.3566 41.933 35.4321C42.0934 35.7676 42.2538 36.103 42.4877 36.5895C41.7414 36.1563 41.1912 35.7831 40.5987 35.501C36.776 33.6705 32.6594 32.5731 28.8211 30.7937C27.7274 30.2872 26.3774 29.9674 25.8161 28.7322C25.2346 27.4527 24.9228 26.0754 24.9562 24.647C24.9807 23.5451 25.923 22.3433 26.9811 22.079C27.4333 21.9657 27.293 22.31 27.3598 22.5366C27.6828 23.6362 27.4511 24.8558 28.1061 25.9132C28.3979 24.416 28.1707 22.972 27.8254 21.5481C27.5091 20.2441 27.685 19.1533 28.9281 18.4203C29.0684 18.3381 29.1553 18.2514 29.1687 18.0915C29.3001 16.3499 29.3135 14.6238 28.233 13.1154C26.8586 11.1961 25.8651 9.11017 25.4418 6.78431C25.375 6.41555 24.8248 5.90906 25.4507 5.62249C26.0589 5.34481 26.6113 4.785 27.4556 5.44255C29.1219 6.73988 30.8216 7.995 32.3831 9.41228C34.7556 11.5626 37.2126 13.6286 39.2532 16.1188C41.9731 18.6979 44.3166 21.5614 46.1143 24.9624C45.7267 24.9336 45.5796 24.7847 45.4415 24.6026C44.154 22.8987 42.8107 21.2371 41.5944 19.4821C40.8214 18.3647 39.6475 17.545 39.1707 16.2166H39.1685ZM79.6491 42.2031C80.3575 42.6585 81.0258 43.1517 81.7698 43.5426C83.8237 44.6245 85.8107 45.8352 87.8178 47.0014C88.7022 47.5146 88.2611 48.2921 88.0183 48.8586C87.7287 49.5383 87.2966 48.8941 86.9602 48.7364C85.7706 48.181 84.7348 47.3169 83.4249 46.9792C84.6457 47.8434 85.8887 48.6764 87.2075 49.3651C88.0139 49.7871 87.7221 50.3625 87.7221 50.9645C87.7221 51.7131 87.2988 52.2641 86.9602 52.8594C86.9402 52.8949 86.7218 52.875 86.655 52.815C85.9288 52.1752 84.6301 52.0552 84.7615 50.7757C82.8792 51.1578 81.8834 49.2096 80.0679 49.1274C81.1127 50.2025 82.4091 50.6268 83.4494 51.4177C83.7903 51.6776 83.993 51.8375 83.8081 52.2952C83.4494 53.1837 83.1844 54.1123 82.8101 54.992C82.3757 56.0139 81.4223 56.136 80.5825 55.4918C79.8028 54.8942 80.9545 54.5877 80.7005 54.1079C80.1459 54.079 80.186 54.5721 79.9944 54.8409C79.6959 55.2586 79.4085 54.9609 79.1212 54.8476C78.8249 54.7299 78.5375 54.5899 78.2457 54.4611C78.5063 54.7832 78.8226 54.9764 79.1479 55.1453C79.4753 55.3141 79.5177 55.5007 79.3662 55.8539C78.8071 57.1601 77.6064 57.7666 76.4547 58.2597C75.7908 58.5441 75.0401 57.811 74.3518 57.4778C74.1201 57.3667 73.9285 57.1779 73.7058 57.0446C72.3046 56.216 70.87 55.5474 69.1926 56.2205C68.9364 56.3226 68.6713 56.3715 68.4641 56.1605C67.2167 54.8765 65.918 53.6369 64.7663 52.2707C64.1826 51.5798 63.5299 51.0578 62.7102 50.869C62.1666 50.7446 61.7968 50.4913 61.4092 50.1581C59.4422 48.4654 57.6267 46.6016 55.4369 45.1621C54.9959 44.8733 54.3922 44.6156 54.0112 43.9803C54.8221 44.1957 55.9003 44.1846 56.0963 44.5934C56.5819 45.5975 57.2324 44.4112 57.6267 44.8999C57.6467 44.9266 57.6958 44.9266 57.7269 44.9466C58.7338 45.5908 59.9858 45.6352 60.9971 46.2795C61.3491 46.5038 61.7389 46.4527 62.1154 46.3172C62.0887 46.1662 62.0998 46.0729 62.0575 46.0329C61.0929 45.0621 59.4868 45.1554 58.6314 43.9892C58.6091 43.9581 58.4064 43.998 58.3507 44.058C58.1591 44.2646 57.9252 44.289 57.7849 44.0913C57.6178 43.8559 57.8896 43.707 58.0299 43.5515C58.5333 42.9917 59.068 42.8051 59.8944 42.9428C61.5251 43.2116 63.0889 43.9092 64.8131 43.6826C61.9684 43.0672 59.411 41.4767 56.1409 41.4967C57.0297 40.6459 57.6334 40.075 58.7004 40.5459C59.518 40.9058 60.4246 40.8702 61.554 40.8747C60.5093 40.2282 59.5024 40.3082 58.6046 39.9017C60.6229 37.7935 63.129 39.042 65.4078 38.7799C63.7661 37.9535 61.9973 37.7158 60.1952 37.4514C60.3957 37.196 60.6184 37.2271 60.8345 37.2115C63.7661 36.996 66.711 37.0227 69.5757 37.6358C73.0219 38.3733 76.6485 38.3022 79.756 40.5903C82.173 42.3697 85.1514 43.3272 87.7109 44.9666C88.2678 45.3242 88.6487 45.6663 88.2856 46.4261C85.4499 44.8933 82.7812 43.0672 79.6536 42.2031H79.6491ZM32.5212 51.6087C34.3435 49.3717 35.8694 47.0281 37.177 44.5445C37.3196 44.2735 37.5824 43.9847 37.2706 43.7959C36.9498 43.6004 36.7693 43.9469 36.6446 44.2313C35.5597 46.726 33.8244 48.8008 32.2495 50.9801C32.0356 51.2755 31.7928 51.6443 31.3517 51.471C30.5966 51.1778 29.7857 51.1533 28.8791 50.9534C29.9194 49.3784 31.3852 48.161 31.7349 46.2817C31.4542 46.4772 31.2359 46.7149 31.0443 46.9748C30.2134 48.0966 29.407 49.2384 28.5561 50.3447C27.8566 51.2555 27.2083 51.2355 26.5111 50.3358C26.0789 49.776 25.5777 49.3006 24.9629 48.9385C23.9159 48.321 23.0449 47.4879 22.2251 46.6038C19.9618 44.1602 20.1846 38.9709 21.4299 36.3251C21.5858 35.9942 21.7863 35.7098 22.2897 35.8431C23.33 36.1186 24.0139 35.5787 24.3993 34.6857C24.6176 34.1792 24.905 34.1703 25.3572 34.2548C27.1393 34.5902 28.9236 34.9345 30.7169 35.2011C33.5259 35.621 36.2793 36.2918 39.0326 36.956C40.9974 37.4314 41.6946 38.1445 40.4093 40.2105C39.9771 39.9728 39.9304 39.2641 39.2086 39.2819C39.1663 40.2638 40.2979 40.948 40.015 41.8299C39.7522 42.6496 39.5829 43.5893 38.8856 44.3135C38.6651 43.5982 38.4802 42.9673 38.2685 42.3431C38.1906 42.1098 37.9299 42.0143 37.7384 42.0498C37.4532 42.1031 37.529 42.332 37.5847 42.5696C37.6582 42.8718 37.7072 43.1183 37.9032 43.4182C38.3844 44.1491 38.6428 45.1421 38.4089 45.9218C37.5401 48.7964 35.9986 51.1244 32.5257 51.6087H32.5212ZM51.5586 45.944C52.5009 46.064 53.0779 47.0503 53.5323 46.7393C54.1805 46.2972 54.41 46.7215 54.7285 46.9437C57.2814 48.712 59.5759 50.7823 61.652 53.086C62.3381 53.8457 63.4186 54.5832 62.1443 55.7406C62.0241 55.8495 61.975 56.0716 61.9505 56.2493C61.6966 58.0509 60.9971 59.7303 60.4892 61.4586C60.34 61.9651 60.2174 62.5627 59.6494 62.9159C57.4641 64.2821 55.154 65.1996 52.521 65.1551C51.7346 65.1418 50.9549 65.224 50.1775 65.4572C48.91 65.8393 47.6825 65.8371 46.4417 65.1151C45.6376 64.6464 44.82 64.1533 44.1851 63.5424C43.6416 63.0181 42.6681 62.4805 42.8753 61.5497C43.127 60.4168 43.8376 59.4482 44.5794 58.3175C44.7109 58.9062 44.6819 59.3771 45.1252 59.7037C45.8113 58.7174 44.8802 57.4578 45.7133 56.4937C46.4662 55.6207 46.9541 54.5322 47.9098 53.6747C48.7117 55.5807 48.9657 57.5911 49.9391 59.3682C50.3178 59.075 50.2577 58.824 50.2465 58.5619C50.173 56.8425 49.6317 55.2252 49.0369 53.6458C48.636 52.5795 48.91 51.8975 49.7743 51.3022C50.1463 51.0445 50.1886 50.6446 50.2265 50.0893C49.7631 50.4025 49.4 50.5935 49.1082 50.8601C48.8387 51.1067 48.6449 51.722 48.2372 51.3399C47.8763 51 47.5689 50.3292 48.0635 49.8516C48.6137 49.3206 48.9835 48.6498 49.4891 48.1077C52.3673 51.993 53.4855 56.6958 55.8067 61.0188C56.0206 60.3612 55.9872 59.9636 55.8691 59.5682C55.0159 56.7536 53.666 54.1123 52.9487 51.2511C52.9175 51.1244 52.7972 50.9912 52.6813 50.9156C51.3269 50.0115 51.0173 48.4432 50.4069 47.1147C50.2332 46.7371 49.3043 46.7593 49.8612 45.984C51.5207 47.077 52.8306 48.5831 54.3677 49.8116C55.8646 51.0067 57.0297 52.5906 58.6514 53.6436C56.6265 50.8468 54.1716 48.472 51.5586 45.944ZM43.1047 52.6173C43.5748 53.1948 43.7307 53.6969 43.2206 54.2523C42.3162 55.2364 41.7437 56.4382 41.1088 57.5889C40.6789 58.3686 40.2133 59.1817 40.3893 60.3501C42.158 59.0417 42.4209 56.7914 43.9401 55.514C44.2787 56.3848 44.2965 57.1934 43.6862 57.9221C42.9421 58.8062 42.5657 59.9081 41.9286 60.8588C41.7838 61.0743 41.6924 61.3631 41.3694 61.2965C40.2846 61.0699 39.2576 61.3875 38.028 61.7208C39.9148 58.6752 40.5519 55.1742 43.1047 52.6173ZM80.186 40.2971C80.5602 39.8661 80.9478 40.1838 81.302 40.2993C84.3427 41.2923 87.2231 42.6496 90.041 44.1491C90.9187 44.6156 91.7652 45.1376 92.6451 45.5997C93.3401 45.9662 93.2065 46.646 92.9637 47.0325C92.6362 47.5546 92.3199 46.9059 92.0325 46.7282C91.4979 46.3994 90.9521 46.0551 90.9677 45.2931C90.9699 45.1798 90.7784 44.8155 90.6692 45.0288C90.1947 45.964 89.7225 45.1354 89.4596 44.971C86.5147 43.1183 83.4494 41.5189 80.1815 40.2971H80.186ZM46.0831 39.1597C46.7803 39.1197 46.8026 40.0949 47.3016 39.6906C47.6313 39.4241 47.217 38.8798 47.1546 38.4577C47.1301 38.2889 46.9875 38.1334 46.894 37.9757C46.4596 37.2337 46.4974 36.4651 46.7358 35.4743C47.2504 36.4384 47.9899 37.0693 48.0679 38.0201C48.1459 38.9687 48.1503 39.9372 47.7917 40.8414C47.4531 41.6966 46.1655 41.4611 45.8871 42.6918C45.3792 41.2679 46.2435 40.2616 46.0831 39.1619V39.1597ZM85.3251 55.3941C84.8885 55.3341 84.5566 55.2341 84.2313 55.2541C83.396 55.3052 83.3982 54.8898 83.6433 54.3056C83.7145 54.1367 83.8103 53.9768 83.8749 53.8035C84.5009 52.1352 84.5053 52.1263 85.9644 53.0149C86.2674 53.1993 86.8555 53.2726 86.684 53.7813C86.4434 54.5055 86.3676 55.4674 85.3229 55.3919L85.3251 55.3941ZM38.3554 49.0807C38.2619 49.0274 38.1705 48.9763 38.077 48.923C38.7052 47.4057 39.3467 45.8952 39.9571 44.3712C40.1442 43.9025 40.5764 43.7581 40.9083 43.8514C41.336 43.9714 41.2692 44.5179 41.1556 44.8222C40.5452 46.455 39.6965 47.9411 38.3554 49.0807ZM45.0161 55.7428C44.2832 53.3592 46.3638 52.6306 47.0053 50.9201C47.2994 51.7198 47.7828 52.1641 47.3506 52.7394C46.6556 53.668 45.9272 54.5721 45.0161 55.7428ZM44.2564 52.6772C43.822 50.8001 43.9201 50.5957 46.1767 48.5209C46.1833 49.1718 46.8449 49.7249 46.4128 50.3047C45.8046 51.1156 45.0517 51.8175 44.2564 52.6795V52.6772ZM62.4518 55.9272C63.5277 57.1623 62.4919 61.4697 60.8033 62.2317C61.9862 60.2813 61.9661 58.0443 62.4518 55.9272ZM59.7942 38.3111C57.551 39.835 57.2569 39.8972 55.2609 39.3419C56.4461 37.8868 58.0076 38.1512 59.7942 38.3111ZM49.3265 47.3924C48.6471 47.9744 47.9499 48.5698 47.1724 49.234C47.0543 48.5342 46.2323 47.9078 47.1345 47.408C47.7694 47.0548 48.4978 45.9618 49.3265 47.3924ZM43.0312 50.3492C42.3563 51.8087 41.2179 52.9683 40.5096 54.7076C40.0262 52.2019 42.2872 51.7664 43.0312 50.3492ZM41.4674 39.2286C42.2412 40.5244 42.3622 41.6603 41.8305 42.6363C41.1778 41.5855 40.6878 40.5192 41.4674 39.2286ZM48.7407 31.8978C49.7297 32.6575 50.6364 35.0922 50.2309 36.2652C49.7476 34.6857 48.5201 33.5861 48.7407 31.8978ZM57.8361 42.754C57.2926 43.727 56.2656 43.7914 54.557 42.954C55.1429 41.9965 55.5149 41.961 57.8361 42.754ZM56.4104 40.2638C55.5505 41.3656 55.2765 41.3945 53.2293 40.577C54.2296 39.6062 55.2921 39.6329 56.4104 40.2638ZM55.8312 38.0668C54.9045 38.7243 54.3432 39.3708 53.3964 39.2708C53.0957 39.2397 52.7549 39.2308 52.6813 38.9043C52.6101 38.5866 52.9152 38.3778 53.1558 38.2511C53.9021 37.8579 54.7018 38.0223 55.8335 38.069L55.8312 38.0668ZM46.7358 31.4269C47.3372 32.8375 48.3642 33.7971 47.9454 35.2544C47.1078 34.2037 46.5375 33.1018 46.7358 31.4269ZM79.0365 57.2734C79.5399 56.8047 79.3818 55.7073 80.4911 55.8784C80.7651 55.9206 81.175 56.0694 80.9389 56.5626C80.5535 57.3667 80.0902 57.9465 79.0365 57.2712V57.2734ZM44.2074 43.0361C43.7374 42.3608 44.0292 41.5922 43.675 40.9658C43.5681 40.7769 43.7173 40.5037 43.9602 40.4548C44.1718 40.4126 44.4124 40.497 44.4926 40.7392C44.7532 41.5278 44.8557 42.3008 44.2052 43.0361H44.2074ZM88.9539 45.713C89.6712 46.4061 90.912 46.5105 90.5333 47.9233C89.7024 47.4368 88.6755 47.1925 88.9539 45.713ZM93.6698 49.0785C94.6901 49.4961 94.6144 50.2336 94.5587 51.0756C93.5941 50.6624 93.3535 50.0382 93.6698 49.0785ZM43.8198 38.8776C42.4164 39.815 42.5345 38.4222 41.786 37.9601C42.8441 37.8535 43.1716 38.5333 43.8198 38.8776ZM54.5347 42.0343C54.3654 42.2431 54.2786 42.3564 54.185 42.463C53.6236 43.0917 53.1313 42.5963 52.639 42.3497C52.492 42.2764 52.2737 42.0543 52.3984 41.9254C52.766 41.5456 53.2628 41.6988 53.7127 41.761C53.96 41.7944 54.1961 41.9188 54.5347 42.0365V42.0343ZM63.4653 57.1912C64.3876 57.9969 64.3876 58.5937 63.4653 58.9817V57.1912ZM93.5763 46.4861C94.0441 47.0325 94.6522 47.2569 94.4406 47.95C94.376 48.161 94.2201 48.2166 94.0173 48.1166C93.3602 47.7923 93.5696 47.2125 93.5763 46.4861ZM44.6329 38.7843C45.8781 38.7176 45.4371 39.3996 45.2544 40.0483C44.8869 39.664 44.7777 39.2464 44.6329 38.7843ZM49.1439 36.2496C49.2664 36.785 49.8634 37.0871 49.7899 37.6825C49.7832 37.7335 49.4847 37.8291 49.4089 37.778C48.8565 37.3937 49.0191 36.8161 49.1439 36.2496ZM46.4373 46.7815C46.8293 46.1839 47.2236 45.773 47.8095 45.5908C47.8429 45.5797 48.0033 45.773 47.9833 45.8196C47.7627 46.335 47.168 46.415 46.8093 46.7771C46.7759 46.8104 46.6779 46.7815 46.4373 46.7815ZM93.4137 51.1733C94.503 51.7042 93.9483 52.0397 93.3201 52.5306C93.3557 52.0041 93.3825 51.6354 93.4137 51.1733ZM53.138 39.8284C52.5544 40.0461 52.3494 40.6281 51.768 40.4415C51.6076 40.3904 51.6009 40.1994 51.6878 40.0661C52.022 39.5596 52.4942 39.744 53.138 39.8284ZM88.4505 54.5921C87.947 54.832 87.5683 54.8743 87.1674 54.7343C87.4258 54.2782 87.8535 54.2308 88.4505 54.5921Z" fill="#030303" fill-opacity="0.12"/>
<path d="M37.4176 51.531C37.3441 51.4466 37.2728 51.4443 37.2171 51.5443C37.206 51.5643 37.2282 51.6043 37.2349 51.6354C37.2906 51.591 37.3463 51.5465 37.402 51.5043L37.4198 51.531H37.4176Z" fill="#030303" fill-opacity="0.12"/>
<path d="M42.1758 35.21C42.06 34.9012 41.9286 34.6057 41.5409 34.5791C41.4942 34.5769 41.4028 34.6546 41.4006 34.7013C41.3761 35.0878 41.6813 35.2433 41.933 35.4321C42.0132 35.3566 42.0956 35.2833 42.1758 35.2078V35.21Z" fill="#030303" fill-opacity="0.12"/>
<path d="M41.2268 34.3325C41.2491 34.3525 41.2714 34.3747 41.2937 34.3947C41.3137 34.3703 41.3494 34.3458 41.3494 34.3236C41.3494 34.3014 41.3115 34.2792 41.2892 34.257C41.2692 34.2814 41.2491 34.3036 41.2268 34.3303V34.3325Z" fill="#030303" fill-opacity="0.12"/>
<path d="M57.2547 62.1962C57.8784 61.4497 57.9943 60.4967 58.3217 59.6282C57.8561 60.4057 57.3037 61.1387 57.1255 62.054C57.1678 62.1029 57.2101 62.1495 57.2547 62.1962Z" fill="#030303" fill-opacity="0.12"/>
<path d="M57.1277 62.054C56.2567 62.3161 56.5775 63.0981 56.2211 63.9267C56.9673 63.3335 57.1255 62.7715 57.2547 62.1962C57.2101 62.1495 57.1678 62.1029 57.1255 62.054H57.1277Z" fill="#030303" fill-opacity="0.12"/>
<path d="M50.1686 59.5282C50.1463 59.5526 50.1062 59.5793 50.1062 59.6037C50.1062 59.6282 50.1485 59.6526 50.1708 59.677C50.1931 59.6526 50.2332 59.6259 50.2309 59.6015C50.2309 59.5771 50.1886 59.5526 50.1663 59.5282H50.1686Z" fill="#030303" fill-opacity="0.12"/>
<path d="M55.976 61.0899L55.9493 61.1743L56.0161 61.1676L55.976 61.0899Z" fill="#030303" fill-opacity="0.12"/>
<path d="M56.1654 64.0488C56.1876 64.0733 56.2099 64.0977 56.2322 64.1199C56.2522 64.0933 56.2879 64.0644 56.2857 64.04C56.2857 64.0155 56.2456 63.9911 56.2233 63.9667C56.2032 63.9933 56.1854 64.02 56.1654 64.0466V64.0488Z" fill="#030303" fill-opacity="0.12"/>
<path d="M89.9586 50.8357C89.9185 50.6935 89.8294 50.6024 89.6757 50.6268C89.64 50.6313 89.6155 50.7113 89.5866 50.7557C89.7046 50.7912 89.8227 50.8268 89.9385 50.8623L89.9586 50.8357Z" fill="#030303" fill-opacity="0.12"/>
</svg>
