<svg width="310" height="289" viewBox="0 0 310 289" fill="none" xmlns="http://www.w3.org/2000/svg">
<path d="M230.259 171.089C229.072 170.89 228.232 171.067 227.768 172.447C227.171 174.233 226.043 175.723 224.127 176.343C222.248 176.948 223.08 178.254 223.353 179.361C224.916 185.589 227.274 191.515 230.414 197.094C232.831 201.381 234.85 205.838 236.98 210.258C239.737 215.992 241.387 222.028 241.269 228.375C241.159 234.418 243.613 239.215 247.151 243.812C254.86 253.833 262.443 263.95 269.997 274.097C272.194 277.048 274.11 280.133 273.609 284.214C273.056 288.796 270.454 290.257 266.239 287.859C260.711 284.708 256.216 280.362 252.634 275.13C250.069 271.381 247.733 267.477 244.262 264.437C243.141 263.456 241.984 262.563 240.547 262.127C229.389 258.748 218.563 254.527 208.37 248.815C204.317 246.542 200.366 246.66 196.018 247.967C187.513 250.512 178.721 252.711 169.98 249.885C159.839 246.609 149.978 242.469 141.643 235.503C140.066 234.182 138.171 233.747 136.351 233.053C127.986 229.843 120.727 225.327 117.13 216.568C116.268 214.472 114.89 214.501 113.32 215.52C102.206 222.774 90.3111 221.888 78.3129 218.708C70.3976 216.605 62.6665 213.8 54.5375 212.524C53.0856 212.295 51.5748 211.823 50.1745 212.022C39.7534 213.461 29.6787 210.598 19.464 209.579C12.6984 208.908 7.4215 204.805 2.69737 200.318C-0.722278 197.072 -0.766498 190.932 1.86457 186.209C6.11702 178.564 12.3446 172.624 18.7565 166.89C26.4654 159.998 35.0366 154.286 43.7995 148.811C70.4787 132.156 106.562 119.921 144.827 119.235C154.636 119.058 164.357 120.46 174.188 122.297C174.188 121.508 174.174 120.799 174.188 120.083C174.277 116.025 175.979 114.541 180.025 115.353C181.433 115.634 181.942 115.567 182.214 114.054C186.422 91.0532 198.244 71.9998 213.573 54.9905C228.225 38.7339 243.525 23.1193 262.443 11.6445C269.378 7.43833 276.925 4.51613 284.266 1.15117C284.818 0.892895 285.445 0.774826 285.489 0H288.437C288.695 1.01096 289.587 0.678896 290.235 0.84124C296.374 2.40565 301.393 5.80013 304.253 11.3715C310.024 22.5807 312.669 34.3285 308.859 46.9176C306.803 53.7139 306.184 60.6652 308.483 67.5796C310.643 74.0882 311.144 80.8476 311.129 87.5849C311.1 95.6652 308.579 102.845 301.452 107.575C300.096 108.476 300.17 109 301.202 110.047C309.213 118.15 310.51 128.333 310.171 139.048C309.95 146.162 308.321 153.298 309.493 160.367C311.409 171.967 318.116 180.535 327.91 186.689C332.73 189.714 337.042 193.264 340.911 197.404C341.397 197.928 342.039 198.297 341.744 199.219C341.11 201.219 342.105 202.613 344.493 202.761C346.446 202.879 348.465 202.916 350.359 202.517C351.922 202.185 352.887 202.886 354 203.565V205.041C348.333 210.487 341.582 209.092 335.052 207.713C328.441 206.318 322.125 203.831 316.664 199.743C308.837 193.884 299.942 191.294 290.39 191.212C275.031 191.087 261.478 185.383 248.544 177.974C243.458 175.059 237.916 173.192 232.949 170.115C231.578 169.266 230.406 169.045 230.178 171.2L230.237 171.111L230.259 171.089ZM48.2436 165.237C49.209 162.544 53.4836 161.407 51.9359 157.408C50.2187 157.954 48.6636 158.758 47.6024 160.027C46.0989 161.828 45.4872 163.82 48.3025 165.186C48.3541 165.518 48.5531 165.924 48.4278 166.16C45.7746 171.347 46.6885 178.498 53.9995 179.605C54.2058 176.136 52.0612 173.052 52.4444 169.569C52.7761 166.573 52.5181 163.872 48.2436 165.23V165.237ZM56.38 168.868L56.4463 168.956C54.3459 171.842 55.7314 174.867 56.0999 177.848C56.3357 179.789 57.0875 181.494 59.3353 180.402C61.2515 179.472 64.6269 179.42 63.6025 175.708C62.2317 170.72 60.5808 165.798 60.1239 160.596C60.0649 159.939 60.0576 158.662 59.1805 159.009C57.3749 159.725 55.0976 160.913 54.766 162.581C54.368 164.558 53.3436 167.458 56.38 168.868ZM224.414 53.8689C226.847 54.319 225.034 55.6104 224.687 56.1712C223.073 58.7687 221.172 61.1965 219.536 63.7867C212.357 75.1803 201.907 84.3011 196.807 97.2001C195.804 99.7386 196.556 101.768 195.959 103.989C197.743 101.148 200.683 98.9269 200.005 95.1413C199.909 94.6174 200.418 93.5179 200.868 93.8204C204.575 96.2851 204.479 92.1232 206.041 90.9277C208.208 89.2674 209.505 86.478 213.065 85.0981C210.456 91.0089 206.203 94.5288 203.307 99.0154C202.459 100.329 201.383 101.886 202.57 102.949C204.073 104.292 205.149 102.491 206.004 101.384C209.682 96.6245 214.2 92.6545 218.238 88.2269C218.961 87.4373 219.779 86.5739 221.312 87.2971C220.206 88.8984 219.396 90.5735 218.187 92.1158C213.728 97.8052 208.51 102.86 204.494 108.911C201.796 112.977 201.148 115.818 202.54 119.36C208.363 112.77 212.888 104.956 219.624 98.9785C217.664 103.797 215.232 108.24 212.151 112.283C209.041 116.372 205.813 120.371 203.263 125.441C206.8 124.57 209.35 123.537 211.001 120.666C211.804 119.272 212.844 117.751 214.458 116.955C214.73 117.205 214.996 117.449 215.268 117.7C214.738 118.814 214.207 119.928 213.433 121.544C215.902 120.105 217.723 118.866 219.683 117.929C232.33 111.848 245.949 108.203 258.648 102.292C262.266 100.609 266.733 99.5467 268.59 95.4439C270.513 91.1934 271.545 86.6182 271.435 81.8733C271.354 78.2132 268.236 74.221 264.735 73.3429C263.239 72.9665 263.704 74.1103 263.482 74.863C262.414 78.5157 263.18 82.567 261.014 86.0795C260.048 81.1059 260.8 76.3093 261.942 71.5792C262.989 67.2476 262.406 63.6243 258.294 61.1891C257.83 60.9161 257.542 60.6283 257.498 60.097C257.063 54.3116 257.019 48.5779 260.593 43.5674C265.141 37.1917 268.428 30.2625 269.828 22.5364C270.049 21.3114 271.869 19.6289 269.799 18.677C267.787 17.7546 265.959 15.895 263.166 18.0793C257.653 22.3888 252.03 26.5581 246.863 31.2661C239.014 38.4093 230.885 45.272 224.134 53.5442C215.136 62.1116 207.383 71.6235 201.435 82.9212C202.717 82.8253 203.204 82.3308 203.661 81.7257C207.921 76.0658 212.365 70.5461 216.389 64.7165C218.946 61.0047 222.83 58.2817 224.407 53.8689H224.414ZM90.488 140.192C88.1444 141.705 85.9334 143.343 83.4718 144.642C76.6768 148.235 70.1028 152.257 63.4625 156.131C60.5366 157.836 61.9959 160.419 62.7992 162.3C63.7573 164.558 65.187 162.418 66.2999 161.894C70.2354 160.05 73.6625 157.179 77.996 156.057C73.9573 158.928 69.8448 161.695 65.4818 163.983C62.8139 165.385 63.7794 167.296 63.7794 169.296C63.7794 171.783 65.1797 173.613 66.2999 175.59C66.3662 175.708 67.0885 175.642 67.3096 175.443C69.7122 173.318 74.0088 172.919 73.574 168.669C79.8016 169.938 83.096 163.466 89.1025 163.193C85.646 166.765 81.3567 168.174 77.9149 170.801C76.7873 171.665 76.1166 172.196 76.7284 173.716C77.9149 176.668 78.7919 179.752 80.0301 182.675C81.4672 186.069 84.6216 186.475 87.4 184.335C89.9795 182.35 86.1692 181.332 87.0094 179.738C88.8445 179.642 88.7119 181.28 89.3457 182.173C90.3333 183.56 91.284 182.571 92.2347 182.195C93.2149 181.804 94.1656 181.339 95.1311 180.911C94.2688 181.981 93.2223 182.623 92.1463 183.184C91.0629 183.745 90.9228 184.364 91.424 185.538C93.2739 189.877 97.2462 191.891 101.057 193.53C103.253 194.474 105.736 192.039 108.014 190.932C108.78 190.563 109.414 189.936 110.151 189.493C114.787 186.741 119.533 184.519 125.082 186.755C125.93 187.095 126.807 187.257 127.492 186.556C131.62 182.291 135.916 178.173 139.727 173.635C141.657 171.34 143.817 169.606 146.529 168.979C148.327 168.565 149.551 167.724 150.833 166.617C157.341 160.994 163.347 154.803 170.592 150.021C172.051 149.062 174.048 148.206 175.309 146.095C172.626 146.811 169.059 146.774 168.41 148.132C166.804 151.468 164.652 147.527 163.347 149.15C163.281 149.239 163.119 149.239 163.016 149.305C159.684 151.445 155.542 151.593 152.196 153.733C151.032 154.478 149.742 154.309 148.497 153.858C148.585 153.357 148.548 153.047 148.688 152.914C151.88 149.689 157.193 149.999 160.023 146.125C160.097 146.022 160.768 146.154 160.952 146.354C161.586 147.04 162.36 147.121 162.824 146.464C163.377 145.682 162.478 145.188 162.013 144.671C160.348 142.812 158.579 142.192 155.845 142.649C150.45 143.542 145.276 145.859 139.572 145.107C148.983 143.062 157.444 137.779 168.263 137.845C165.322 135.019 163.325 133.123 159.795 134.687C157.09 135.882 154.091 135.764 150.354 135.779C153.81 133.632 157.142 133.897 160.112 132.547C153.435 125.544 145.143 129.691 137.604 128.82C143.036 126.075 148.887 125.286 154.85 124.408C154.186 123.559 153.449 123.662 152.734 123.611C143.036 122.895 133.293 122.983 123.815 125.02C112.414 127.47 100.415 127.234 90.1343 134.835C82.1379 140.745 72.2843 143.926 63.8162 149.372C61.9737 150.56 60.7135 151.696 61.9148 154.22C71.2967 149.128 80.1259 143.062 90.4733 140.192H90.488ZM246.406 171.436C240.378 164.005 235.329 156.22 231.003 147.97C230.532 147.069 229.662 146.11 230.694 145.483C231.755 144.834 232.352 145.985 232.765 146.929C236.354 155.216 242.095 162.108 247.305 169.348C248.013 170.329 248.816 171.554 250.276 170.978C252.774 170.004 255.457 169.923 258.456 169.259C255.014 164.027 250.165 159.983 249.008 153.74C249.937 154.39 250.659 155.179 251.293 156.043C254.042 159.769 256.709 163.562 259.525 167.237C261.839 170.263 263.984 170.196 266.29 167.208C267.72 165.348 269.378 163.769 271.413 162.566C274.876 160.515 277.758 157.747 280.47 154.81C287.958 146.693 287.221 129.455 283.101 120.666C282.585 119.567 281.922 118.622 280.256 119.065C276.815 119.98 274.552 118.187 273.277 115.22C272.555 113.538 271.604 113.508 270.108 113.789C264.212 114.903 258.309 116.047 252.376 116.932C243.083 118.327 233.973 120.556 224.864 122.762C218.364 124.341 216.057 126.71 220.309 133.573C221.739 132.783 221.894 130.429 224.282 130.488C224.422 133.75 220.678 136.023 221.614 138.952C222.484 141.675 223.044 144.797 225.35 147.202C226.08 144.826 226.692 142.73 227.392 140.657C227.65 139.882 228.512 139.565 229.146 139.683C230.089 139.86 229.839 140.62 229.654 141.41C229.411 142.413 229.249 143.232 228.601 144.228C227.009 146.656 226.154 149.955 226.928 152.545C229.802 162.094 234.902 169.827 246.392 171.436H246.406ZM183.423 152.619C180.305 153.017 178.397 156.294 176.893 155.26C174.748 153.792 173.989 155.201 172.935 155.939C164.49 161.813 156.898 168.691 150.03 176.343C147.76 178.867 144.185 181.317 148.401 185.161C148.799 185.523 148.961 186.261 149.042 186.851C149.882 192.836 152.196 198.415 153.877 204.156C154.371 205.838 154.776 207.823 156.655 208.997C163.885 213.535 171.528 216.582 180.239 216.435C182.841 216.391 185.42 216.664 187.992 217.438C192.186 218.708 196.247 218.7 200.352 216.302C203.012 214.745 205.717 213.107 207.817 211.077C209.616 209.336 212.836 207.55 212.151 204.458C211.318 200.695 208.967 197.477 206.513 193.721C206.078 195.677 206.174 197.241 204.707 198.326C202.437 195.05 205.518 190.866 202.762 187.663C200.271 184.763 198.657 181.147 195.495 178.299C192.842 184.63 192.001 191.308 188.781 197.212C187.528 196.238 187.727 195.404 187.764 194.533C188.007 188.822 189.798 183.449 191.766 178.203C193.092 174.661 192.186 172.395 189.326 170.418C188.095 169.562 187.955 168.233 187.83 166.388C189.363 167.429 190.564 168.064 191.53 168.949C192.422 169.768 193.063 171.812 194.411 170.543C195.605 169.414 196.622 167.185 194.986 165.599C193.166 163.835 191.943 161.607 190.27 159.806C180.748 172.713 177.048 188.334 169.368 202.695C168.661 200.51 168.771 199.189 169.162 197.876C171.985 188.526 176.451 179.752 178.824 170.248C178.927 169.827 179.325 169.384 179.708 169.134C184.189 166.13 185.214 160.92 187.233 156.508C187.808 155.253 190.881 155.327 189.039 152.751C183.548 156.382 179.215 161.385 174.129 165.466C169.177 169.436 165.322 174.698 159.957 178.195C166.656 168.905 174.778 161.016 183.423 152.619ZM211.392 174.786C209.837 176.705 209.321 178.372 211.009 180.217C214.001 183.486 215.895 187.478 217.995 191.301C219.418 193.891 220.958 196.592 220.376 200.473C214.524 196.127 213.654 188.652 208.628 184.409C207.508 187.301 207.449 189.987 209.468 192.408C211.93 195.345 213.175 199.005 215.283 202.163C215.762 202.879 216.064 203.838 217.133 203.617C220.722 202.864 224.12 203.92 228.188 205.026C221.946 194.909 219.838 183.28 211.392 174.786ZM88.7119 133.86C87.4737 132.429 86.1913 133.484 85.0195 133.868C74.9596 137.166 65.4302 141.675 56.1073 146.656C53.2035 148.206 50.403 149.94 47.4918 151.475C45.1924 152.692 45.6346 154.951 46.4379 156.235C47.5213 157.969 48.5678 155.814 49.5186 155.224C51.2873 154.131 53.093 152.988 53.0414 150.457C53.034 150.08 53.6678 148.87 54.029 149.578C55.5988 152.685 57.1612 149.933 58.0308 149.387C67.7739 143.232 77.9149 137.919 88.7266 133.86H88.7119ZM201.538 130.082C199.231 129.949 199.158 133.189 197.507 131.846C196.416 130.96 197.787 129.152 197.993 127.75C198.074 127.19 198.546 126.673 198.856 126.149C200.293 123.684 200.167 121.131 199.379 117.84C197.676 121.043 195.23 123.138 194.972 126.297C194.714 129.448 194.699 132.665 195.885 135.668C197.006 138.509 201.265 137.727 202.187 141.815C203.867 137.085 201.008 133.742 201.538 130.09V130.082ZM71.7094 184.01C73.1539 183.811 74.2521 183.479 75.3281 183.545C78.0918 183.715 78.0844 182.335 77.2737 180.394C77.0379 179.834 76.721 179.302 76.5073 178.727C74.4363 173.185 74.4216 173.155 69.5943 176.107C68.592 176.719 66.6463 176.963 67.2138 178.653C68.0097 181.058 68.2603 184.254 71.7168 184.003L71.7094 184.01ZM227.104 163.038C227.414 162.861 227.716 162.691 228.026 162.514C225.947 157.474 223.825 152.456 221.805 147.394C221.186 145.837 219.757 145.357 218.659 145.667C217.244 146.066 217.465 147.881 217.84 148.892C219.86 154.316 222.668 159.253 227.104 163.038ZM205.068 185.169C207.493 177.251 200.61 174.83 198.487 169.148C197.514 171.805 195.915 173.281 197.345 175.192C199.644 178.276 202.054 181.28 205.068 185.169ZM207.582 174.985C209.019 168.75 208.694 168.071 201.229 161.179C201.207 163.341 199.018 165.178 200.447 167.104C202.459 169.798 204.95 172.13 207.582 174.993V174.985ZM147.384 185.781C143.824 189.884 147.251 204.193 152.838 206.724C148.924 200.245 148.991 192.814 147.384 185.781ZM156.176 127.263C163.598 132.326 164.571 132.532 171.174 130.687C167.253 125.854 162.087 126.732 156.176 127.263ZM190.808 157.43C193.055 159.363 195.362 161.341 197.934 163.547C198.325 161.223 201.044 159.142 198.06 157.482C195.959 156.308 193.549 152.678 190.808 157.43ZM211.635 167.252C213.868 172.1 217.634 175.952 219.978 181.73C221.577 173.406 214.097 171.96 211.635 167.252ZM216.809 130.311C214.249 134.616 213.848 138.389 215.607 141.631C217.767 138.14 219.388 134.598 216.809 130.311ZM192.746 105.959C189.474 108.483 186.474 116.571 187.815 120.467C189.415 115.22 193.475 111.568 192.746 105.959ZM162.654 142.022C164.453 145.254 167.85 145.468 173.503 142.686C171.565 139.506 170.334 139.388 162.654 142.022ZM167.371 133.75C170.216 137.41 171.122 137.506 177.895 134.79C174.586 131.566 171.071 131.654 167.371 133.75ZM169.287 126.452C172.353 128.636 174.21 130.783 177.343 130.451C178.338 130.348 179.465 130.318 179.708 129.234C179.944 128.178 178.935 127.485 178.139 127.064C175.67 125.758 173.024 126.304 169.28 126.459L169.287 126.452ZM199.379 104.395C197.389 109.081 193.991 112.269 195.377 117.109C198.148 113.619 200.035 109.959 199.379 104.395ZM92.5148 190.253C90.8491 188.696 91.3724 185.051 87.7022 185.619C86.7957 185.759 85.4396 186.254 86.2208 187.892C87.4958 190.563 89.0288 192.489 92.5148 190.246V190.253ZM207.744 142.959C209.299 140.716 208.333 138.163 209.505 136.082C209.859 135.454 209.365 134.547 208.562 134.384C207.862 134.244 207.066 134.525 206.8 135.329C205.938 137.949 205.599 140.517 207.751 142.959H207.744ZM59.7038 151.851C57.3307 154.154 53.2256 154.5 54.4785 159.194C57.2275 157.578 60.625 156.766 59.7038 151.851ZM44.1017 163.031C40.7262 164.418 40.9768 166.868 41.1611 169.665C44.3522 168.292 45.1482 166.219 44.1017 163.031ZM209.026 129.145C213.669 132.259 213.278 127.632 215.755 126.097C212.254 125.743 211.171 128.001 209.026 129.145ZM173.577 139.631C174.137 140.325 174.424 140.701 174.734 141.055C176.591 143.144 178.22 141.498 179.848 140.679C180.335 140.435 181.057 139.698 180.644 139.27C179.428 138.008 177.785 138.517 176.296 138.723C175.478 138.834 174.697 139.247 173.577 139.638V139.631ZM144.031 189.98C140.979 192.656 140.979 194.639 144.031 195.928V189.98ZM44.4112 154.419C42.8635 156.235 40.8515 156.98 41.5517 159.282C41.7654 159.983 42.2813 160.168 42.9519 159.836C45.1261 158.758 44.4333 156.832 44.4112 154.419ZM206.336 128.835C202.216 128.614 203.675 130.879 204.28 133.034C205.496 131.757 205.857 130.37 206.336 128.835ZM191.412 120.415C191.007 122.194 189.031 123.197 189.275 125.175C189.297 125.345 190.284 125.662 190.535 125.492C192.363 124.216 191.825 122.297 191.412 120.415ZM200.366 155.401C199.069 153.416 197.765 152.05 195.826 151.445C195.716 151.408 195.185 152.05 195.252 152.205C195.981 153.917 197.949 154.183 199.136 155.386C199.246 155.497 199.57 155.401 200.366 155.401ZM44.9492 169.99C41.3453 171.753 43.1804 172.867 45.2587 174.498C45.1408 172.749 45.0524 171.524 44.9492 169.99ZM178.198 132.303C180.129 133.027 180.807 134.96 182.73 134.34C183.261 134.17 183.283 133.536 182.995 133.093C181.89 131.411 180.328 132.023 178.198 132.303ZM61.3694 181.346C63.035 182.143 64.2879 182.283 65.6145 181.819C64.7596 180.303 63.3446 180.146 61.3694 181.346Z" fill="#030303" fill-opacity="0.12"/>
<path d="M230.207 171.178C230.45 170.897 230.686 170.89 230.871 171.222C230.907 171.288 230.834 171.421 230.812 171.524C230.627 171.377 230.443 171.229 230.259 171.089L230.2 171.178H230.207Z" fill="#030303" fill-opacity="0.12"/>
<path d="M214.465 116.962C214.848 115.936 215.283 114.955 216.565 114.866C216.72 114.859 217.022 115.117 217.03 115.272C217.111 116.556 216.101 117.073 215.268 117.7C215.003 117.449 214.73 117.205 214.465 116.955V116.962Z" fill="#030303" fill-opacity="0.12"/>
<path d="M217.605 114.047C217.531 114.113 217.457 114.187 217.384 114.254C217.317 114.173 217.199 114.091 217.199 114.018C217.199 113.944 217.325 113.87 217.398 113.796C217.465 113.877 217.531 113.951 217.605 114.04V114.047Z" fill="#030303" fill-opacity="0.12"/>
<path d="M164.578 206.606C162.514 204.126 162.131 200.96 161.048 198.075C162.588 200.658 164.416 203.093 165.005 206.133C164.865 206.296 164.725 206.451 164.578 206.606Z" fill="#030303" fill-opacity="0.12"/>
<path d="M164.998 206.133C167.88 207.004 166.818 209.602 167.998 212.354C165.529 210.384 165.005 208.517 164.578 206.606C164.725 206.451 164.865 206.296 165.005 206.133H164.998Z" fill="#030303" fill-opacity="0.12"/>
<path d="M188.022 197.743C188.095 197.824 188.228 197.913 188.228 197.994C188.228 198.075 188.088 198.156 188.014 198.238C187.941 198.156 187.808 198.068 187.815 197.987C187.815 197.905 187.955 197.824 188.029 197.743H188.022Z" fill="#030303" fill-opacity="0.12"/>
<path d="M168.808 202.931L168.897 203.211L168.676 203.189L168.808 202.931Z" fill="#030303" fill-opacity="0.12"/>
<path d="M168.182 212.76C168.108 212.841 168.034 212.922 167.961 212.996C167.894 212.908 167.777 212.812 167.784 212.73C167.784 212.649 167.917 212.568 167.99 212.487C168.057 212.575 168.116 212.664 168.182 212.753V212.76Z" fill="#030303" fill-opacity="0.12"/>
<path d="M56.38 168.868C56.5126 168.396 56.8074 168.093 57.3159 168.174C57.4339 168.189 57.5149 168.455 57.6107 168.602C57.2201 168.72 56.8295 168.838 56.4463 168.956L56.38 168.868Z" fill="#030303" fill-opacity="0.12"/>
</svg>
