<svg width="964" height="1396" viewBox="0 0 964 1396" fill="none" xmlns="http://www.w3.org/2000/svg">
<path d="M38.9935 15.2307L0.0111715 15.8425L0.424528 51.4781L948.382 34.6724L947.991 0.963077L916.097 1.46369C916.454 32.2837 876.541 29.057 876.228 2.08946L853.193 2.45102C853.54 32.3079 810.98 30.086 810.667 3.11851L787.632 3.48007C787.99 34.3001 751.631 31.9808 751.308 4.05021L717.641 4.57864C717.987 34.4355 681.652 34.0425 681.317 5.14879L656.51 5.53816C656.856 35.395 619.623 34.0528 619.299 6.12221L593.606 6.52548C593.941 35.4192 555.845 36.0172 555.51 7.12344L531.589 7.49891C531.957 39.282 488.556 40.9265 488.177 8.1803L467.8 8.50014C468.157 39.3201 427.38 38.0336 427.045 9.13982L401.352 9.54309C401.699 39.4 365.341 37.0807 365.028 10.1132L336.677 10.5582C336.99 37.5257 300.676 39.059 300.353 11.1284L273.774 11.5456C274.109 40.4393 235.979 38.1479 235.677 12.1435L210.87 12.5329C211.194 40.4635 171.292 38.1999 171.002 13.1587L147.081 13.5341C149.199 43.3632 106.662 43.0675 108.099 14.146L82.4057 14.5493C82.7632 45.3692 39.3063 42.1981 38.9935 15.2307Z" fill="#FFF0E1"/>
<path d="M925.018 1381.73L964 1381.12L963.486 1336.82L15.506 1351.7L16.0199 1396L47.9146 1395.5C47.5571 1364.68 87.4701 1367.91 87.7829 1394.87L110.818 1394.51C110.472 1364.66 153.031 1366.88 153.344 1393.84L176.379 1393.48C176.022 1362.66 212.38 1364.98 212.704 1392.91L246.37 1392.38C246.024 1362.53 282.36 1362.92 282.695 1391.81L307.502 1391.42C307.155 1361.57 344.388 1362.91 344.712 1390.84L370.405 1390.44C370.07 1361.54 408.166 1360.95 408.501 1389.84L432.422 1389.46C432.054 1357.68 475.455 1356.04 475.835 1388.78L496.212 1388.46C495.854 1357.64 536.631 1358.93 536.966 1387.82L562.659 1387.42C562.313 1357.56 598.671 1359.88 598.983 1386.85L627.334 1386.4C627.021 1359.44 663.335 1357.9 663.659 1385.83L690.238 1385.42C689.902 1356.52 728.032 1358.82 728.334 1384.82L753.141 1384.43C752.817 1356.5 792.719 1358.76 793.009 1383.8L816.93 1383.43C814.812 1353.6 857.349 1353.9 855.913 1382.82L881.605 1382.41C881.248 1351.59 924.705 1354.76 925.018 1381.73Z" fill="#FFF0E1"/>
<path d="M11.4843 1004.97L11.9758 1047.35L52.7301 1046.71L38.9935 15.2307L0.0223543 16.8056L0.424528 51.4781C28.7753 51.0331 25.7342 94.4294 0.927245 94.8187L1.2177 119.86C28.6825 119.429 26.5609 165.701 1.75394 166.09L2.04439 191.131C30.3952 190.686 28.1953 230.216 2.50242 230.619L2.92694 267.218C30.3918 266.787 29.9639 306.289 3.38497 306.706L3.69777 333.674C31.1626 333.243 29.8599 373.722 4.16698 374.125L4.49095 402.055C31.0698 401.638 31.5502 443.053 4.97132 443.47L5.27295 469.474C34.5097 469.015 35.9431 516.195 5.82036 516.667L6.0773 538.819C34.4281 538.374 33.1701 582.706 6.59119 583.123L6.91516 611.054C34.38 610.622 32.1802 650.152 7.37319 650.542L7.73068 681.362C32.5376 680.972 33.8816 720.447 8.18871 720.85L8.52386 749.744C35.1027 749.326 32.9252 790.782 9.00423 791.158L9.31703 818.125C35.01 817.722 32.8548 861.104 9.81975 861.466L10.1214 887.47C37.5639 885.113 37.2142 931.357 10.6129 929.848L10.9369 957.778C39.2877 957.333 36.2913 1004.58 11.4843 1004.97Z" fill="#FFF0E1"/>
<path d="M12.5568 1097.43C45.3374 1096.92 36.7716 1046 11.9647 1046.39L52.719 1045.75L56.5396 1375.14L15.7853 1375.77L15.4614 1347.84C45.5841 1347.37 45.7886 1288.61 14.7799 1289.09L14.4448 1260.2C45.4534 1259.71 43.0447 1204.84 13.808 1205.3L13.4952 1178.33C43.6179 1177.86 41.1533 1118.18 12.8025 1118.62L12.5568 1097.43Z" fill="#FFF0E1"/>
<path d="M959.442 988.166L959.934 1030.54L928.039 1031.04L916.085 0.500569L947.98 -4.75287e-05L948.382 34.6724C920.031 35.1174 924.078 78.4024 948.885 78.013L949.175 103.054C921.711 103.485 924.905 149.674 949.712 149.284L950.002 174.326C921.651 174.771 924.767 214.217 950.46 213.814L950.885 250.412C923.42 250.843 924.764 290.318 951.343 289.9L951.656 316.868C924.191 317.299 926.432 357.722 952.125 357.319L952.449 385.25C925.87 385.667 926.35 427.081 952.929 426.664L953.231 452.669C923.994 453.127 923.655 500.334 953.778 499.862L954.035 522.014C925.684 522.459 927.97 566.734 954.549 566.317L954.873 594.248C927.408 594.679 930.524 634.125 955.331 633.736L955.688 664.556C930.881 664.945 930.454 704.447 956.146 704.044L956.482 732.938C929.903 733.355 933.041 774.728 956.962 774.352L957.275 801.32C931.582 801.723 934.742 845.022 957.777 844.66L958.079 870.665C930.592 869.17 932.014 915.386 958.571 913.042L958.895 940.973C930.544 941.418 934.635 988.555 959.442 988.166Z" fill="#FFF0E1"/>
<path d="M960.515 1080.63C927.734 1081.14 935.115 1029.97 959.922 1029.58L928.028 1030.08L931.848 1359.47L963.743 1358.97L963.419 1331.04C933.296 1331.51 931.729 1272.77 962.738 1272.29L962.402 1243.39C931.394 1243.88 932.529 1188.95 961.766 1188.5L961.453 1161.53C931.33 1162 932.409 1102.26 960.76 1101.81L960.515 1080.63Z" fill="#FFF0E1"/>
<path d="M37.5549 48.0054L916.476 34.2099L931.592 1337.32L56.2603 1351.06L37.5549 48.0054Z" fill="#FFF0E1"/>
<rect width="840.106" height="1278.48" transform="matrix(0.999874 -0.0158895 0.0118222 0.99993 54.8105 65.1133)" fill="#FFF0E1"/>
</svg>
